<svg width="40" height="40" viewBox="0 0 40 40" fill="none" xmlns="http://www.w3.org/2000/svg">
<path d="M36.2681 26.534L25.6014 7.33398C24.1681 4.75065 22.1848 3.33398 20.0014 3.33398C17.8181 3.33398 15.8348 4.75065 14.4014 7.33398L3.73476 26.534C2.38476 28.984 2.23476 31.334 3.31809 33.184C4.40143 35.034 6.53476 36.0507 9.33476 36.0507H30.6681C33.4681 36.0507 35.6014 35.034 36.6848 33.184C37.7681 31.334 37.6181 28.9673 36.2681 26.534ZM18.7514 15.0007C18.7514 14.3173 19.3181 13.7507 20.0014 13.7507C20.6848 13.7507 21.2514 14.3173 21.2514 15.0007V23.334C21.2514 24.0173 20.6848 24.584 20.0014 24.584C19.3181 24.584 18.7514 24.0173 18.7514 23.334V15.0007ZM21.1848 29.5173C21.1014 29.584 21.0181 29.6507 20.9348 29.7173C20.8348 29.784 20.7348 29.834 20.6348 29.8673C20.5348 29.9173 20.4348 29.9507 20.3181 29.9673C20.2181 29.984 20.1014 30.0007 20.0014 30.0007C19.9014 30.0007 19.7848 29.984 19.6681 29.9673C19.5681 29.9507 19.4681 29.9173 19.3681 29.8673C19.2681 29.834 19.1681 29.784 19.0681 29.7173C18.9848 29.6507 18.9014 29.584 18.8181 29.5173C18.5181 29.2007 18.3348 28.7673 18.3348 28.334C18.3348 27.9007 18.5181 27.4673 18.8181 27.1507C18.9014 27.084 18.9848 27.0173 19.0681 26.9507C19.1681 26.884 19.2681 26.834 19.3681 26.8007C19.4681 26.7507 19.5681 26.7173 19.6681 26.7007C19.8848 26.6507 20.1181 26.6507 20.3181 26.7007C20.4348 26.7173 20.5348 26.7507 20.6348 26.8007C20.7348 26.834 20.8348 26.884 20.9348 26.9507C21.0181 27.0173 21.1014 27.084 21.1848 27.1507C21.4848 27.4673 21.6681 27.9007 21.6681 28.334C21.6681 28.7673 21.4848 29.2007 21.1848 29.5173Z" fill="#B72136"/>
</svg>
