<svg width="126" height="125" viewBox="0 0 126 125" fill="none" xmlns="http://www.w3.org/2000/svg">
<g id="Gray/Clock">
<path id="&#230;&#164;&#173;&#229;&#156;&#134;&#229;&#189;&#162;" d="M63.001 116.822C93.0018 116.822 117.322 92.5018 117.322 62.501C117.322 32.5002 93.0018 8.17969 63.001 8.17969C33.0002 8.17969 8.67969 32.5002 8.67969 62.501C8.67969 92.5018 33.0002 116.822 63.001 116.822Z" fill="#EDEFF2"/>
<path id="&#230;&#164;&#173;&#229;&#156;&#134;&#229;&#189;&#162;_2" d="M62.9998 112.941C90.8577 112.941 113.441 90.3577 113.441 62.4998C113.441 34.6419 90.8577 12.0586 62.9998 12.0586C35.1419 12.0586 12.5586 34.6419 12.5586 62.4998C12.5586 90.3577 35.1419 112.941 62.9998 112.941Z" fill="#C4CDD5"/>
<path id="&#230;&#164;&#173;&#229;&#156;&#134;&#229;&#189;&#162;_3" d="M63.0013 111.122C89.8547 111.122 111.624 89.3528 111.624 62.4994C111.624 35.6459 89.8547 13.877 63.0013 13.877C36.1479 13.877 14.3789 35.6459 14.3789 62.4994C14.3789 89.3528 36.1479 111.122 63.0013 111.122Z" fill="#F9FAFB"/>
<path id="&#232;&#183;&#175;&#229;&#190;&#132;" d="M62.9986 31.5703C64.0701 31.5703 64.9387 32.4389 64.9387 33.5104V61.0772H61.0586V33.5104C61.0586 32.4389 61.9272 31.5703 62.9986 31.5703Z" fill="#637381"/>
<path id="&#232;&#183;&#175;&#229;&#190;&#132;_2" d="M82.7539 62.5006C82.7539 63.5721 81.8853 64.4406 80.8139 64.4406H62.9994V60.5605H80.8139C81.8853 60.5605 82.7539 61.4291 82.7539 62.5006Z" fill="#637381"/>
<path id="&#230;&#164;&#173;&#229;&#156;&#134;&#229;&#189;&#162;_4" d="M62.9981 66.9864C65.4758 66.9864 67.4844 64.9778 67.4844 62.5C67.4844 60.0223 65.4758 58.0137 62.9981 58.0137C60.5203 58.0137 58.5117 60.0223 58.5117 62.5C58.5117 64.9778 60.5203 66.9864 62.9981 66.9864Z" fill="#C4CDD5"/>
<g id="&#231;&#188;&#150;&#231;&#187;&#132;">
<path id="&#231;&#159;&#169;&#229;&#189;&#162;" d="M64.9348 21.7584C64.9348 20.6869 64.0662 19.8184 62.9947 19.8184C61.9233 19.8184 61.0547 20.6869 61.0547 21.7584V25.6385C61.0547 26.71 61.9233 27.5785 62.9947 27.5785C64.0662 27.5785 64.9348 26.71 64.9348 25.6385V21.7584Z" fill="#C4CDD5"/>
<path id="&#231;&#159;&#169;&#229;&#189;&#162;_2" d="M32.8171 32.3215C33.5748 31.5639 34.8031 31.5639 35.5608 32.3215L38.3044 35.0652C39.062 35.8228 39.062 37.0512 38.3044 37.8088C37.5468 38.5665 36.3184 38.5665 35.5608 37.8088L32.8171 35.0652C32.0595 34.3075 32.0595 33.0792 32.8171 32.3215Z" fill="#C4CDD5"/>
<path id="&#231;&#159;&#169;&#229;&#189;&#162;_3" d="M20.3203 62.5033C20.3203 61.4319 21.1889 60.5633 22.2604 60.5633H26.1404C27.2119 60.5633 28.0805 61.4319 28.0805 62.5033C28.0805 63.5748 27.2119 64.4434 26.1404 64.4434H22.2604C21.1889 64.4434 20.3203 63.5748 20.3203 62.5033Z" fill="#C4CDD5"/>
<path id="&#231;&#159;&#169;&#229;&#189;&#162;_4" d="M32.8235 92.6829C32.0659 91.9252 32.0659 90.6969 32.8235 89.9392L35.5671 87.1956C36.3248 86.438 37.5531 86.438 38.3108 87.1956C39.0684 87.9532 39.0684 89.1816 38.3108 89.9392L35.5671 92.6829C34.8095 93.4405 33.5811 93.4405 32.8235 92.6829Z" fill="#C4CDD5"/>
<path id="&#231;&#159;&#169;&#229;&#189;&#162;_5" d="M61.0652 103.24C61.0652 104.311 61.9338 105.18 63.0053 105.18C64.0767 105.18 64.9453 104.311 64.9453 103.24V99.3595C64.9453 98.2881 64.0767 97.4195 63.0053 97.4195C61.9338 97.4195 61.0652 98.2881 61.0652 99.3595V103.24Z" fill="#C4CDD5"/>
<path id="&#231;&#159;&#169;&#229;&#189;&#162;_6" d="M93.1829 92.6765C92.4252 93.4341 91.1969 93.4341 90.4392 92.6765L87.6956 89.9329C86.938 89.1752 86.938 87.9469 87.6956 87.1892C88.4532 86.4316 89.6816 86.4316 90.4392 87.1892L93.1829 89.9329C93.9405 90.6905 93.9405 91.9189 93.1829 92.6765Z" fill="#C4CDD5"/>
<path id="&#231;&#159;&#169;&#229;&#189;&#162;_7" d="M105.684 62.4947C105.684 63.5662 104.815 64.4348 103.744 64.4348H99.8635C98.792 64.4348 97.9234 63.5662 97.9234 62.4947C97.9234 61.4233 98.792 60.5547 99.8635 60.5547H103.744C104.815 60.5547 105.684 61.4233 105.684 62.4947Z" fill="#C4CDD5"/>
<path id="&#231;&#159;&#169;&#229;&#189;&#162;_8" d="M93.1804 32.3171C93.9381 33.0748 93.938 34.3031 93.1804 35.0608L90.4368 37.8044C89.6791 38.562 88.4508 38.562 87.6931 37.8044C86.9355 37.0468 86.9355 35.8184 87.6931 35.0608L90.4368 32.3171C91.1944 31.5595 92.4228 31.5595 93.1804 32.3171Z" fill="#C4CDD5"/>
</g>
</g>
</svg>
