<svg width="25" height="24" viewBox="0 0 25 24" fill="none" xmlns="http://www.w3.org/2000/svg">
<g id="vuesax/bulk/driver">
<g id="vuesax/bulk/driver_2">
<g id="driver">
<path id="Vector" opacity="0.4" d="M19.72 9.99977H5.09004C3.61004 9.99977 2.41003 8.78977 2.41003 7.31977V4.68977C2.41003 3.20977 3.62004 2.00977 5.09004 2.00977H19.72C21.2 2.00977 22.4 3.21977 22.4 4.68977V7.31977C22.4 8.78977 21.19 9.99977 19.72 9.99977Z" fill="#2D99FF"/>
<path id="Vector_2" opacity="0.4" d="M19.72 21.9998H5.09004C3.61004 21.9998 2.41003 20.7898 2.41003 19.3198V16.6898C2.41003 15.2098 3.62004 14.0098 5.09004 14.0098H19.72C21.2 14.0098 22.4 15.2198 22.4 16.6898V19.3198C22.4 20.7898 21.19 21.9998 19.72 21.9998Z" fill="#2D99FF"/>
<g id="Group">
<path id="Vector_3" d="M6.40002 7.75C5.99002 7.75 5.65002 7.41 5.65002 7V5C5.65002 4.59 5.99002 4.25 6.40002 4.25C6.81002 4.25 7.15002 4.59 7.15002 5V7C7.15002 7.41 6.81002 7.75 6.40002 7.75Z" fill="#2D99FF"/>
</g>
<g id="Group_2">
<path id="Vector_4" d="M10.4 7.75C9.99002 7.75 9.65002 7.41 9.65002 7V5C9.65002 4.59 9.99002 4.25 10.4 4.25C10.81 4.25 11.15 4.59 11.15 5V7C11.15 7.41 10.81 7.75 10.4 7.75Z" fill="#2D99FF"/>
</g>
<g id="Group_3">
<path id="Vector_5" d="M6.40002 19.75C5.99002 19.75 5.65002 19.41 5.65002 19V17C5.65002 16.59 5.99002 16.25 6.40002 16.25C6.81002 16.25 7.15002 16.59 7.15002 17V19C7.15002 19.41 6.81002 19.75 6.40002 19.75Z" fill="#2D99FF"/>
</g>
<g id="Group_4">
<path id="Vector_6" d="M10.4 19.75C9.99002 19.75 9.65002 19.41 9.65002 19V17C9.65002 16.59 9.99002 16.25 10.4 16.25C10.81 16.25 11.15 16.59 11.15 17V19C11.15 19.41 10.81 19.75 10.4 19.75Z" fill="#2D99FF"/>
</g>
<g id="Group_5">
<path id="Vector_7" d="M18.4 6.75H14.4C13.99 6.75 13.65 6.41 13.65 6C13.65 5.59 13.99 5.25 14.4 5.25H18.4C18.81 5.25 19.15 5.59 19.15 6C19.15 6.41 18.81 6.75 18.4 6.75Z" fill="#2D99FF"/>
</g>
<g id="Group_6">
<path id="Vector_8" d="M18.4 18.75H14.4C13.99 18.75 13.65 18.41 13.65 18C13.65 17.59 13.99 17.25 14.4 17.25H18.4C18.81 17.25 19.15 17.59 19.15 18C19.15 18.41 18.81 18.75 18.4 18.75Z" fill="#2D99FF"/>
</g>
</g>
</g>
</g>
</svg>
