<svg width="25" height="24" viewBox="0 0 25 24" fill="none" xmlns="http://www.w3.org/2000/svg">
<g id="vuesax/bulk/group">
<g id="vuesax/bulk/group_2">
<g id="group">
<path id="Vector" opacity="0.4" d="M22.8 14V17C22.8 18.66 21.46 20 19.8 20H18.8C18.8 18.9 17.9 18 16.8 18C15.7 18 14.8 18.9 14.8 20H10.8C10.8 18.9 9.90005 18 8.80005 18C7.70005 18 6.80005 18.9 6.80005 20H5.80005C4.14005 20 2.80005 18.66 2.80005 17V14H13.8C14.9 14 15.8 13.1 15.8 12V5H17.6401C18.3601 5 19.0201 5.39001 19.3801 6.01001L21.09 9H19.8C19.25 9 18.8 9.45 18.8 10V13C18.8 13.55 19.25 14 19.8 14H22.8Z" fill="#FF4842"/>
<path id="Vector_2" d="M8.80005 22C9.90462 22 10.8 21.1046 10.8 20C10.8 18.8954 9.90462 18 8.80005 18C7.69548 18 6.80005 18.8954 6.80005 20C6.80005 21.1046 7.69548 22 8.80005 22Z" fill="#FF4842"/>
<path id="Vector_3" d="M16.8 22C17.9046 22 18.8 21.1046 18.8 20C18.8 18.8954 17.9046 18 16.8 18C15.6955 18 14.8 18.8954 14.8 20C14.8 21.1046 15.6955 22 16.8 22Z" fill="#FF4842"/>
<path id="Vector_4" d="M22.8 12.53V14H19.8C19.25 14 18.8 13.55 18.8 13V10C18.8 9.45 19.25 9 19.8 9H21.09L22.54 11.54C22.71 11.84 22.8 12.18 22.8 12.53Z" fill="#FF4842"/>
<g id="Group">
<path id="Vector_5" d="M14.8 2H6.80005C4.85005 2 3.23007 3.4 2.88007 5.25H7.80005C8.21005 5.25 8.55005 5.59 8.55005 6C8.55005 6.41 8.21005 6.75 7.80005 6.75H2.80005V8.25H5.80005C6.21005 8.25 6.55005 8.59 6.55005 9C6.55005 9.41 6.21005 9.75 5.80005 9.75H2.80005V11.25H3.80005C4.21005 11.25 4.55005 11.59 4.55005 12C4.55005 12.41 4.21005 12.75 3.80005 12.75H2.80005V14H13.8C14.9 14 15.8 13.1 15.8 12V3C15.8 2.45 15.35 2 14.8 2Z" fill="#FF4842"/>
<path id="Vector_6" d="M2.88007 5.25H1.80005C1.39005 5.25 1.05005 5.59 1.05005 6C1.05005 6.41 1.39005 6.75 1.80005 6.75H2.80005V6C2.80005 5.74 2.83007 5.49 2.88007 5.25Z" fill="#FF4842"/>
<path id="Vector_7" d="M1.80005 8.25C1.39005 8.25 1.05005 8.59 1.05005 9C1.05005 9.41 1.39005 9.75 1.80005 9.75H2.80005V8.25H1.80005Z" fill="#FF4842"/>
<path id="Vector_8" d="M1.80005 11.25C1.39005 11.25 1.05005 11.59 1.05005 12C1.05005 12.41 1.39005 12.75 1.80005 12.75H2.80005V11.25H1.80005Z" fill="#FF4842"/>
</g>
</g>
</g>
</g>
</svg>
