<svg width="177" height="146" viewBox="0 0 177 146" fill="none" xmlns="http://www.w3.org/2000/svg">
<path d="M114.771 37H68.3392C65.5978 37 63.3755 39.2134 63.3755 41.9438V105.001C63.3755 107.731 65.5978 109.945 68.3392 109.945H114.771C117.512 109.945 119.735 107.731 119.735 105.001V41.9438C119.735 39.2134 117.512 37 114.771 37Z" fill="#DFE3E8" stroke="#DFE3E8"/>
<path d="M113.079 37H63.9543C61.2181 37 59 39.2092 59 41.9344V105.066C59 107.791 61.2181 110 63.9543 110H113.079C115.816 110 118.034 107.791 118.034 105.066V41.9344C118.034 39.2092 115.816 37 113.079 37Z" fill="white" stroke="#DFE3E8" stroke-width="0.75" stroke-miterlimit="10"/>
<path d="M82.5779 42.1074H64.8898C63.828 42.1074 62.9673 42.9647 62.9673 44.0222C62.9673 45.0797 63.828 45.937 64.8898 45.937H82.5779C83.6396 45.937 84.5004 45.0797 84.5004 44.0222C84.5004 42.9647 83.6396 42.1074 82.5779 42.1074Z" fill="#DFE3E8"/>
<path d="M111.185 50.3237H65.8485C64.3376 50.3237 63.1128 51.5436 63.1128 53.0484V101.278C63.1128 102.783 64.3376 104.003 65.8485 104.003H111.185C112.696 104.003 113.921 102.783 113.921 101.278V53.0484C113.921 51.5436 112.696 50.3237 111.185 50.3237Z" fill="#DFE3E8"/>
<path d="M77.1816 84.9814H69.3459C68.2841 84.9814 67.4233 85.8387 67.4233 86.8962C67.4233 87.9537 68.2841 88.811 69.3459 88.811H77.1816C78.2434 88.811 79.1041 87.9537 79.1041 86.8962C79.1041 85.8387 78.2434 84.9814 77.1816 84.9814Z" fill="#DFE3E8"/>
<path d="M102.123 91.9805H68.4198C67.8695 91.9805 67.4233 92.4238 67.4233 92.9706C67.4233 93.5175 67.8695 93.9608 68.4198 93.9608H102.123C102.673 93.9608 103.119 93.5175 103.119 92.9706C103.119 92.4238 102.673 91.9805 102.123 91.9805Z" fill="#B7BEC5"/>
<path d="M102.123 96.9058H68.4198C67.8695 96.9058 67.4233 97.3491 67.4233 97.8959C67.4233 98.4428 67.8695 98.8861 68.4198 98.8861H102.123C102.673 98.8861 103.119 98.4428 103.119 97.8959C103.119 97.3491 102.673 96.9058 102.123 96.9058Z" fill="#B7BEC5"/>
<path d="M104.773 75.4638C104.773 70.8571 100.703 59.9678 94.7895 59.9678C89.3557 59.9678 85.2522 69.5557 85.2522 69.5557C85.2522 69.5557 83.3907 65.0145 79.9218 65.0145C75.3717 65.0145 72.8052 72.4255 72.8052 75.4685H104.773V75.4638Z" fill="#B7BEC5"/>
<path d="M81.1959 61.5456C83.1351 61.5456 84.7071 59.9798 84.7071 58.0484C84.7071 56.117 83.1351 54.5513 81.1959 54.5513C79.2566 54.5513 77.6846 56.117 77.6846 58.0484C77.6846 59.9798 79.2566 61.5456 81.1959 61.5456Z" fill="#B7BEC5"/>
<path d="M6.77539 67.1309V68.6224" stroke="#D8DDE1" stroke-width="2.921" stroke-linecap="round"/>
<path d="M3.42529 67.939L4.6441 69.1936" stroke="#D8DDE1" stroke-width="2.921" stroke-linecap="round"/>
<path d="M2 71.2788H3.72338" stroke="#D8DDE1" stroke-width="2.921" stroke-linecap="round"/>
<path d="M3.28516 74.678L4.50397 73.4233" stroke="#D8DDE1" stroke-width="2.921" stroke-linecap="round"/>
<path d="M6.77539 75.0858V73.5942" stroke="#D8DDE1" stroke-width="2.921" stroke-linecap="round"/>
<path d="M9.26146 74.0915L8.26709 73.0972" stroke="#D8DDE1" stroke-width="2.921" stroke-linecap="round"/>
<path d="M11.2503 71.606H9.75879" stroke="#D8DDE1" stroke-width="2.921" stroke-linecap="round"/>
<path d="M10.2561 68.1255L9.26172 69.1199" stroke="#D8DDE1" stroke-width="2.921" stroke-linecap="round"/>
<path d="M86.8223 2V2.99437" stroke="#D8DDE1" stroke-width="2.921" stroke-linecap="round"/>
<path d="M83.8389 4.98291H84.8332" stroke="#D8DDE1" stroke-width="2.921" stroke-linecap="round"/>
<path d="M86.8223 7.96605V6.97168" stroke="#D8DDE1" stroke-width="2.921" stroke-linecap="round"/>
<path d="M89.3078 4.98291H88.3135" stroke="#D8DDE1" stroke-width="2.921" stroke-linecap="round"/>
<path d="M29.1489 43.7637V45.2552" stroke="#D8DDE1" stroke-width="2.921" stroke-linecap="round"/>
<path d="M24.6743 48.2378H26.1659" stroke="#D8DDE1" stroke-width="2.921" stroke-linecap="round"/>
<path d="M29.1489 52.2157V50.7241" stroke="#D8DDE1" stroke-width="2.921" stroke-linecap="round"/>
<path d="M33.1263 48.2378H31.6348" stroke="#D8DDE1" stroke-width="2.921" stroke-linecap="round"/>
<path d="M136.17 97.9756C137.358 97.9756 138.322 98.9395 138.322 100.128C138.322 101.317 137.358 102.28 136.17 102.28C134.982 102.28 134.018 101.317 134.018 100.128" stroke="#D8DDE1" stroke-width="2.921" stroke-linecap="round"/>
<path fill-rule="evenodd" clip-rule="evenodd" d="M146.018 78.4485C147.295 78.0499 149.254 76.4873 149.707 74.8062C150.118 76.2923 151.842 78.0499 153.397 78.1829C151.646 78.8027 149.973 80.6439 149.707 82.0903C149.526 80.616 147.212 78.6634 146.018 78.4485Z" fill="#F6F7F8"/>
<path fill-rule="evenodd" clip-rule="evenodd" d="M14.8657 97.3126C15.5048 97.1134 16.4836 96.3323 16.7102 95.4917C16.9158 96.2343 17.7773 97.1134 18.5548 97.1801C17.6798 97.4895 16.8432 98.4104 16.7102 99.1336C16.6199 98.3964 15.4626 97.4199 14.8657 97.3126Z" fill="#F6F7F8"/>
<path fill-rule="evenodd" clip-rule="evenodd" d="M26.7247 28.1504C26.7247 29.0725 25.9776 29.8193 25.0562 29.8193C24.1344 29.8193 23.3877 29.0725 23.3877 28.1504C23.3877 27.2287 24.1344 26.4814 25.0562 26.4814C25.9776 26.4814 26.7247 27.2287 26.7247 28.1504Z" fill="#DFE3E8"/>
<path fill-rule="evenodd" clip-rule="evenodd" d="M138.141 32.6317C138.141 34.1724 136.892 35.4212 135.353 35.4212C133.812 35.4212 132.563 34.1724 132.563 32.6317C132.563 31.0911 133.812 29.8423 135.353 29.8423C136.892 29.8423 138.141 31.0911 138.141 32.6317Z" fill="#F6F7F8"/>
<path fill-rule="evenodd" clip-rule="evenodd" d="M176.77 25.0741C176.77 26.2963 175.779 27.2868 174.558 27.2868C173.336 27.2868 172.346 26.2963 172.346 25.0741C172.346 23.8518 173.336 22.8613 174.558 22.8613C175.779 22.8613 176.77 23.8518 176.77 25.0741Z" fill="#F6F7F8"/>
<path fill-rule="evenodd" clip-rule="evenodd" d="M57.9079 128.417C57.9079 129.188 57.2836 129.812 56.5133 129.812C55.7434 129.812 55.1191 129.188 55.1191 128.417C55.1191 127.647 55.7434 127.022 56.5133 127.022C57.2836 127.022 57.9079 127.647 57.9079 128.417Z" stroke="#D8DDE1" stroke-width="2.921" stroke-linecap="round"/>
<path fill-rule="evenodd" clip-rule="evenodd" d="M57.0782 17.4282C57.0782 18.3503 56.3311 19.0972 55.4097 19.0972C54.4883 19.0972 53.7412 18.3503 53.7412 17.4282C53.7412 16.5066 54.4883 15.7593 55.4097 15.7593C56.3311 15.7593 57.0782 16.5066 57.0782 17.4282Z" stroke="#D8DDE1" stroke-width="2.921" stroke-linecap="round"/>
<path fill-rule="evenodd" clip-rule="evenodd" d="M99.6385 143.864C98.5723 144.27 97.3791 143.734 96.9735 142.668C96.5678 141.602 97.1031 140.408 98.1697 140.002C99.2354 139.597 100.429 140.132 100.834 141.198C101.24 142.265 100.705 143.458 99.6385 143.864Z" stroke="#D8DDE1" stroke-width="2.921" stroke-linecap="round"/>
</svg>
