<svg width="22" height="22" viewBox="0 0 22 22" fill="none" xmlns="http://www.w3.org/2000/svg">
<g id="vuesax/bulk/bank">
<g id="vuesax/bulk/bank_2">
<g id="bank">
<path id="Vector" d="M20.1666 17.4167V20.1667H1.83325V17.4167C1.83325 16.9125 2.24575 16.5 2.74992 16.5H19.2499C19.7541 16.5 20.1666 16.9125 20.1666 17.4167Z" fill="#637381" stroke="#637381" stroke-width="1.5" stroke-miterlimit="10" stroke-linecap="round" stroke-linejoin="round"/>
<path id="Vector_2" opacity="0.6" d="M7.33341 10.0833H3.66675V16.5H7.33341V10.0833Z" fill="#637381"/>
<path id="Vector_3" opacity="0.4" d="M10.9999 10.0833H7.33325V16.5H10.9999V10.0833Z" fill="#637381"/>
<path id="Vector_4" opacity="0.6" d="M14.6667 10.0833H11V16.5H14.6667V10.0833Z" fill="#637381"/>
<path id="Vector_5" opacity="0.4" d="M18.3334 10.0833H14.6667V16.5H18.3334V10.0833Z" fill="#637381"/>
<path id="Vector_6" d="M21.0834 20.8542H0.916748C0.540915 20.8542 0.229248 20.5425 0.229248 20.1667C0.229248 19.7908 0.540915 19.4792 0.916748 19.4792H21.0834C21.4592 19.4792 21.7709 19.7908 21.7709 20.1667C21.7709 20.5425 21.4592 20.8542 21.0834 20.8542Z" fill="#637381"/>
<path id="Vector_7" d="M19.5891 5.27084L11.3391 1.97086C11.1557 1.89753 10.8441 1.89753 10.6608 1.97086L2.41076 5.27084C2.08992 5.39917 1.83325 5.775 1.83325 6.12333V9.16667C1.83325 9.67084 2.24575 10.0833 2.74992 10.0833H19.2499C19.7541 10.0833 20.1666 9.67084 20.1666 9.16667V6.12333C20.1666 5.775 19.9099 5.39917 19.5891 5.27084ZM10.9999 7.79167C10.2391 7.79167 9.62492 7.17751 9.62492 6.41667C9.62492 5.65584 10.2391 5.04167 10.9999 5.04167C11.7608 5.04167 12.3749 5.65584 12.3749 6.41667C12.3749 7.17751 11.7608 7.79167 10.9999 7.79167Z" fill="#637381"/>
</g>
</g>
</g>
</svg>
