<svg width="12" height="12" viewBox="0 0 12 12" fill="none" xmlns="http://www.w3.org/2000/svg">
<g id="vuesax/bulk/box">
<g id="vuesax/bulk/box_2">
<g id="box">
<path id="Vector" opacity="0.4" d="M10.0499 3.47002C10.0499 3.74002 9.90494 3.985 9.67494 4.11L8.80493 4.58L8.06494 4.97502L6.52994 5.805C6.36494 5.895 6.18495 5.94001 5.99995 5.94001C5.81495 5.94001 5.63495 5.895 5.46995 5.805L2.32495 4.11C2.09495 3.985 1.94995 3.74002 1.94995 3.47002C1.94995 3.20002 2.09495 2.955 2.32495 2.83L3.30995 2.30001L4.09495 1.87502L5.46995 1.13503C5.79995 0.955031 6.19994 0.955031 6.52994 1.13503L9.67494 2.83C9.90494 2.955 10.0499 3.20002 10.0499 3.47002Z" fill="#637381"/>
<path id="Vector_2" opacity="0.4" d="M4.9501 6.39503L2.0251 4.93004C1.8001 4.81504 1.5401 4.83003 1.3251 4.96003C1.1101 5.09003 0.985107 5.32005 0.985107 5.57005V8.33503C0.985107 8.81503 1.2501 9.24502 1.6801 9.46002L4.60509 10.92C4.70509 10.97 4.8151 10.995 4.9251 10.995C5.0551 10.995 5.1851 10.96 5.3001 10.885C5.5151 10.755 5.6401 10.525 5.6401 10.275V7.51005C5.6451 7.04005 5.38009 6.61003 4.9501 6.39503Z" fill="#637381"/>
<path id="Vector_3" opacity="0.4" d="M11.015 5.57505V8.34002C11.015 8.81502 10.75 9.24502 10.32 9.46002L7.39499 10.925C7.29499 10.975 7.18498 11 7.07498 11C6.94498 11 6.81499 10.965 6.69499 10.89C6.48499 10.76 6.35498 10.53 6.35498 10.28V7.52002C6.35498 7.04002 6.61999 6.61002 7.04999 6.39502L8.12498 5.86002L8.87498 5.48502L9.97498 4.93503C10.2 4.82003 10.46 4.83003 10.675 4.96503C10.885 5.09503 11.015 5.32505 11.015 5.57505Z" fill="#637381"/>
<path id="Vector_4" d="M8.80504 4.58001L8.06505 4.97503L3.31006 2.30002L4.09506 1.87503L8.68505 4.46502C8.73505 4.49502 8.77504 4.53501 8.80504 4.58001Z" fill="#637381"/>
<path id="Vector_5" d="M8.875 5.48502V6.62002C8.875 6.82502 8.705 6.99502 8.5 6.99502C8.295 6.99502 8.125 6.82502 8.125 6.62002V5.86001L8.875 5.48502Z" fill="#637381"/>
</g>
</g>
</g>
</svg>
