<svg width="20" height="12" viewBox="0 0 13 14" xmlns="http://www.w3.org/2000/svg">
  <path d="M7.4158 6.99921L11.7158 2.70921C12.1079 2.31709 12.1079 1.68133 11.7158 1.28921C11.3237 0.897087 10.6879 0.897087 10.2958 1.28921L6.0058 5.58921L1.7158 1.28921C1.32368 0.897087 0.687921 0.897087 0.295798 1.28921C-0.0963238 1.68133 -0.0963238 2.31709 0.295798 2.70921L4.5958 6.99921L0.295798 11.2892C0.106486 11.477 0 11.7326 0 11.9992C0 12.2658 0.106486 12.5214 0.295798 12.7092C0.483565 12.8985 0.739161 13.005 1.0058 13.005C1.27244 13.005 1.52803 12.8985 1.7158 12.7092L6.0058 8.40921L10.2958 12.7092C10.4836 12.8985 10.7392 13.005 11.0058 13.005C11.2724 13.005 11.528 12.8985 11.7158 12.7092C11.9051 12.5214 12.0116 12.2658 12.0116 11.9992C12.0116 11.7326 11.9051 11.477 11.7158 11.2892L7.4158 6.99921Z"/>
</svg>
