<svg width="22" height="22" viewBox="0 0 22 22" fill="none" xmlns="http://www.w3.org/2000/svg">
<g id="vuesax/bulk/convert-card" clip-path="url(#clip0_4894_11248)">
<g id="vuesax/bulk/convert-card_2">
<g id="convert-card">
<g id="Group">
<path id="Vector (Stroke)" opacity="0.4" fill-rule="evenodd" clip-rule="evenodd" d="M20.1667 13.0625C20.5464 13.0625 20.8542 13.3703 20.8542 13.75C20.8542 17.6772 17.6772 20.8542 13.75 20.8542C13.5023 20.8542 13.2738 20.7209 13.1517 20.5054C13.0297 20.2899 13.033 20.0253 13.1605 19.813L14.123 18.2088C14.3183 17.8832 14.7406 17.7776 15.0662 17.973C15.3918 18.1683 15.4974 18.5906 15.302 18.9162L15.0533 19.3307C17.5917 18.7418 19.4792 16.4694 19.4792 13.75C19.4792 13.3703 19.787 13.0625 20.1667 13.0625Z" fill="#637381"/>
<path id="Vector (Stroke)_2" opacity="0.4" fill-rule="evenodd" clip-rule="evenodd" d="M6.94661 2.66928C4.40826 3.25818 2.52075 5.53064 2.52075 8.25001C2.52075 8.62971 2.21295 8.93751 1.83325 8.93751C1.45356 8.93751 1.14575 8.62971 1.14575 8.25001C1.14575 4.32281 4.32272 1.14584 8.24992 1.14584C8.4976 1.14584 8.72614 1.27908 8.84818 1.49461C8.97022 1.71015 8.96688 1.97467 8.83945 2.18706L7.87696 3.79122C7.68161 4.11681 7.2593 4.22239 6.93372 4.02704C6.60813 3.83169 6.50255 3.40938 6.6979 3.0838L6.94661 2.66928Z" fill="#637381"/>
</g>
<path id="Vector" opacity="0.4" d="M10.9999 14.3917V14.9508H1.83325V14.3917C1.83325 12.7783 2.23659 12.375 3.86825 12.375H8.96492C10.5966 12.375 10.9999 12.7783 10.9999 14.3917Z" fill="#637381"/>
<path id="Vector_2" d="M1.83325 14.9508V16.3258V18.15C1.83325 19.7633 2.23659 20.1667 3.86825 20.1667H8.96492C10.5966 20.1667 10.9999 19.7633 10.9999 18.15V16.3258V14.9508H1.83325Z" fill="#637381"/>
<path id="Vector_3" opacity="0.4" d="M20.1667 3.85001V4.40918H11V3.85001C11 2.23668 11.4033 1.83334 13.035 1.83334H18.1317C19.7633 1.83334 20.1667 2.23668 20.1667 3.85001Z" fill="#637381"/>
<path id="Vector_4" d="M11 4.40918V5.78418V7.60835C11 9.22168 11.4033 9.62501 13.035 9.62501H18.1317C19.7633 9.62501 20.1667 9.22168 20.1667 7.60835V5.78418V4.40918H11Z" fill="#637381"/>
</g>
</g>
</g>
<defs>
<clipPath id="clip0_4894_11248">
<rect width="22" height="22" fill="white"/>
</clipPath>
</defs>
</svg>
