<svg width="20" height="20" viewBox="0 0 20 20" fill="none" xmlns="http://www.w3.org/2000/svg">
<g id="icon/ic_checkmark">
<path id="Path" d="M11.4086 9.99915L15.7045 5.71268C16.0962 5.32088 16.0962 4.68565 15.7045 4.29385C15.3127 3.90205 14.6776 3.90205 14.2859 4.29385L10 8.59031L5.71414 4.29385C5.3224 3.90205 4.68726 3.90205 4.29551 4.29385C3.90377 4.68565 3.90377 5.32088 4.29551 5.71268L8.59136 9.99915L4.29551 14.2856C4.10638 14.4732 4 14.7286 4 14.995C4 15.2614 4.10638 15.5168 4.29551 15.7044C4.4831 15.8936 4.73845 16 5.00483 16C5.27121 16 5.52656 15.8936 5.71414 15.7044L10 11.408L14.2859 15.7044C14.4734 15.8936 14.7288 16 14.9952 16C15.2616 16 15.5169 15.8936 15.7045 15.7044C15.8936 15.5168 16 15.2614 16 14.995C16 14.7286 15.8936 14.4732 15.7045 14.2856L11.4086 9.99915Z" fill="#B72136"/>
</g>
</svg>
