<svg width="42" height="42" viewBox="0 0 42 42" fill="none" xmlns="http://www.w3.org/2000/svg">
<g id="vuesax/bulk/call">
<g id="call">
<path id="Vector" d="M20.6325 24.8675L14.91 30.59C14.28 30.03 13.6675 29.4525 13.0725 28.8575C11.27 27.0375 9.6425 25.13 8.19 23.135C6.755 21.14 5.6 19.145 4.76 17.1675C3.92 15.1725 3.5 13.265 3.5 11.445C3.5 10.255 3.71 9.1175 4.13 8.0675C4.55 7 5.215 6.02 6.1425 5.145C7.2625 4.0425 8.4875 3.5 9.7825 3.5C10.2725 3.5 10.7625 3.605 11.2 3.815C11.655 4.025 12.0575 4.34 12.3725 4.795L16.4325 10.5175C16.7475 10.955 16.975 11.3575 17.1325 11.7425C17.29 12.11 17.3775 12.4775 17.3775 12.81C17.3775 13.23 17.255 13.65 17.01 14.0525C16.7825 14.455 16.45 14.875 16.03 15.295L14.7 16.6775C14.5075 16.87 14.42 17.0975 14.42 17.3775C14.42 17.5175 14.4375 17.64 14.4725 17.78C14.525 17.92 14.5775 18.025 14.6125 18.13C14.9275 18.7075 15.47 19.46 16.24 20.37C17.0275 21.28 17.8675 22.2075 18.7775 23.135C19.4075 23.7475 20.02 24.3425 20.6325 24.8675Z" fill="#2D99FF"/>
<path id="Vector_2" d="M38.4473 32.0778C38.4473 32.5678 38.3598 33.0753 38.1848 33.5653C38.1323 33.7053 38.0798 33.8453 38.0098 33.9853C37.7123 34.6153 37.3273 35.2103 36.8198 35.7703C35.9623 36.7153 35.0173 37.3978 33.9498 37.8353C33.9323 37.8353 33.9148 37.8528 33.8973 37.8528C32.8648 38.2728 31.7448 38.5003 30.5373 38.5003C28.7523 38.5003 26.8448 38.0803 24.8323 37.2228C22.8198 36.3653 20.8073 35.2103 18.8123 33.7578C18.1298 33.2503 17.4473 32.7428 16.7998 32.2003L22.5223 26.4778C23.0123 26.8453 23.4498 27.1253 23.8173 27.3178C23.9048 27.3528 24.0098 27.4053 24.1323 27.4578C24.2723 27.5103 24.4123 27.5278 24.5698 27.5278C24.8673 27.5278 25.0948 27.4228 25.2873 27.2303L26.6173 25.9178C27.0548 25.4803 27.4748 25.1478 27.8773 24.9378C28.2798 24.6928 28.6823 24.5703 29.1198 24.5703C29.4523 24.5703 29.8023 24.6403 30.1873 24.7978C30.5723 24.9553 30.9748 25.1828 31.4123 25.4803L37.2048 29.5928C37.6598 29.9078 37.9748 30.2753 38.1673 30.7128C38.3423 31.1503 38.4473 31.5878 38.4473 32.0778Z" fill="#2D99FF"/>
</g>
</g>
</svg>
