<svg width="22" height="22" viewBox="0 0 22 22" fill="none" xmlns="http://www.w3.org/2000/svg">
<g id="vuesax/bulk/clipboard-text">
<g id="vuesax/bulk/clipboard-text_2">
<g id="clipboard-text">
<path id="Vector" opacity="0.4" d="M14.8867 3.3457H7.11337C4.8492 3.3457 3.01587 5.1882 3.01587 7.4432V16.069C3.01587 18.324 4.85837 20.1665 7.11337 20.1665H14.8775C17.1417 20.1665 18.975 18.324 18.975 16.069V7.4432C18.9842 5.17904 17.1417 3.3457 14.8867 3.3457Z" fill="#637381"/>
<path id="Vector_2" d="M13.1541 1.83398H8.84578C7.89245 1.83398 7.11328 2.60398 7.11328 3.55732V4.41898C7.11328 5.37232 7.88328 6.14232 8.83661 6.14232H13.1541C14.1074 6.14232 14.8774 5.37232 14.8774 4.41898V3.55732C14.8866 2.60398 14.1074 1.83398 13.1541 1.83398Z" fill="#637381"/>
<path id="Vector_3" d="M13.7499 11.8711H7.33325C6.95742 11.8711 6.64575 11.5594 6.64575 11.1836C6.64575 10.8078 6.95742 10.4961 7.33325 10.4961H13.7499C14.1258 10.4961 14.4374 10.8078 14.4374 11.1836C14.4374 11.5594 14.1258 11.8711 13.7499 11.8711Z" fill="#637381"/>
<path id="Vector_4" d="M11.3483 15.5371H7.33325C6.95742 15.5371 6.64575 15.2254 6.64575 14.8496C6.64575 14.4738 6.95742 14.1621 7.33325 14.1621H11.3483C11.7241 14.1621 12.0358 14.4738 12.0358 14.8496C12.0358 15.2254 11.7241 15.5371 11.3483 15.5371Z" fill="#637381"/>
</g>
</g>
</g>
</svg>
