<svg width="18" height="18" viewBox="0 0 18 18" fill="none" xmlns="http://www.w3.org/2000/svg">
<g id="Icon Base">
<path id="overlay color" d="M10.5 3.75C10.6752 3.74966 10.8451 3.81069 10.98 3.9225C11.1334 4.04966 11.2299 4.23263 11.2482 4.43102C11.2664 4.62942 11.205 4.82694 11.0775 4.98L7.7175 9L10.9575 13.0275C11.0833 13.1824 11.1422 13.3812 11.1211 13.5796C11.1 13.7781 11.0006 13.96 10.845 14.085C10.6881 14.223 10.4808 14.2894 10.2729 14.268C10.0651 14.2466 9.87553 14.1395 9.75 13.9725L6.1275 9.4725C5.90001 9.19575 5.90001 8.79675 6.1275 8.52L9.8775 4.02C10.0301 3.83592 10.2613 3.73562 10.5 3.75Z" fill="#212B36"/>
</g>
</svg>
