<svg width="22" height="22" viewBox="0 0 22 22" fill="none" xmlns="http://www.w3.org/2000/svg">
<g id="icon/navbar/ic_dashboard">
<path id="Path" d="M18.6818 7.85565L17.5543 9.55148C18.6588 11.7544 18.583 14.3647 17.3526 16.4998H4.6476C3.03105 13.6955 3.44437 10.1629 5.66462 7.80746C7.88487 5.45201 11.3868 4.83084 14.2818 6.27898L15.9776 5.15148C12.4244 2.87305 7.77471 3.31545 4.71497 6.22308C1.65522 9.1307 0.976492 13.7518 3.07093 17.4165C3.39644 17.9803 3.99656 18.3292 4.6476 18.3332H17.3434C18.001 18.3358 18.6096 17.986 18.9384 17.4165C20.6605 14.4333 20.5649 10.7366 18.6909 7.84648L18.6818 7.85565Z" fill="#3366FF"/>
<path id="Path_2" opacity="0.48" d="M9.70761 14.1262C10.0515 14.4705 10.5181 14.6639 11.0047 14.6639C11.4913 14.6639 11.9579 14.4705 12.3018 14.1262L17.4901 6.34375L9.70761 11.5321C9.36336 11.876 9.16992 12.3426 9.16992 12.8292C9.16992 13.3158 9.36336 13.7824 9.70761 14.1262Z" fill="#3366FF"/>
</g>
</svg>
