<svg width="24" height="24" viewBox="0 0 24 24" fill="none" xmlns="http://www.w3.org/2000/svg">
<g id="icon/ic_edit">
<path id="Shape" fill-rule="evenodd" clip-rule="evenodd" d="M16.6603 4.59998L19.4003 7.33998C20.1663 8.06975 20.1976 9.28164 19.4703 10.05L10.4703 19.05C10.1443 19.3732 9.7171 19.5745 9.2603 19.62L5.0903 20H5.0003C4.7345 20.0015 4.47902 19.8972 4.2903 19.71C4.07934 19.4998 3.97303 19.2065 4.0003 18.91L4.4303 14.74C4.47581 14.2832 4.67707 13.8559 5.0003 13.53L14.0003 4.52998C14.7761 3.87453 15.92 3.90464 16.6603 4.59998ZM13.3203 7.99998L16.0003 10.68L18.0003 8.72998L15.2703 5.99998L13.3203 7.99998Z" fill="#637381"/>
</g>
</svg>
