<svg width="177" height="146" viewBox="0 0 177 146" fill="none" xmlns="http://www.w3.org/2000/svg">
<path d="M6.39062 67.131V68.6226" stroke="#D8DDE1" stroke-width="2.921" stroke-linecap="round"/>
<path d="M3.04053 67.9389L4.25934 69.1936" stroke="#D8DDE1" stroke-width="2.921" stroke-linecap="round"/>
<path d="M1.61523 71.2789H3.33861" stroke="#D8DDE1" stroke-width="2.921" stroke-linecap="round"/>
<path d="M2.90039 74.6781L4.1192 73.4235" stroke="#D8DDE1" stroke-width="2.921" stroke-linecap="round"/>
<path d="M6.39062 75.086V73.5944" stroke="#D8DDE1" stroke-width="2.921" stroke-linecap="round"/>
<path d="M8.87669 74.0915L7.88232 73.0971" stroke="#D8DDE1" stroke-width="2.921" stroke-linecap="round"/>
<path d="M10.8656 71.6058H9.37402" stroke="#D8DDE1" stroke-width="2.921" stroke-linecap="round"/>
<path d="M9.87132 68.1253L8.87695 69.1197" stroke="#D8DDE1" stroke-width="2.921" stroke-linecap="round"/>
<path d="M86.4375 2V2.99437" stroke="#D8DDE1" stroke-width="2.921" stroke-linecap="round"/>
<path d="M83.4541 4.98289H84.4485" stroke="#D8DDE1" stroke-width="2.921" stroke-linecap="round"/>
<path d="M86.4375 7.96623V6.97186" stroke="#D8DDE1" stroke-width="2.921" stroke-linecap="round"/>
<path d="M88.9231 4.98289H87.9287" stroke="#D8DDE1" stroke-width="2.921" stroke-linecap="round"/>
<path d="M28.7642 43.7636V45.2551" stroke="#D8DDE1" stroke-width="2.921" stroke-linecap="round"/>
<path d="M24.2896 48.238H25.7811" stroke="#D8DDE1" stroke-width="2.921" stroke-linecap="round"/>
<path d="M28.7642 52.2157V50.7242" stroke="#D8DDE1" stroke-width="2.921" stroke-linecap="round"/>
<path d="M32.7416 48.238H31.25" stroke="#D8DDE1" stroke-width="2.921" stroke-linecap="round"/>
<path d="M135.785 97.9758C136.973 97.9758 137.937 98.9397 137.937 100.128C137.937 101.317 136.973 102.281 135.785 102.281C134.597 102.281 133.633 101.317 133.633 100.128" stroke="#D8DDE1" stroke-width="2.921" stroke-linecap="round"/>
<path fill-rule="evenodd" clip-rule="evenodd" d="M145.633 78.4487C146.91 78.0501 148.869 76.4876 149.322 74.8064C149.733 76.2925 151.457 78.0501 153.012 78.1831C151.261 78.8029 149.588 80.6441 149.322 82.0906C149.142 80.6163 146.827 78.6636 145.633 78.4487Z" fill="#F6F7F8"/>
<path fill-rule="evenodd" clip-rule="evenodd" d="M14.481 97.3129C15.12 97.1136 16.0988 96.3325 16.3255 95.4919C16.531 96.2346 17.3925 97.1136 18.17 97.1803C17.295 97.4898 16.4584 98.4106 16.3255 99.1338C16.2352 98.3967 15.0778 97.4201 14.481 97.3129Z" fill="#F6F7F8"/>
<path fill-rule="evenodd" clip-rule="evenodd" d="M26.34 28.1505C26.34 29.0725 25.5929 29.8194 24.6714 29.8194C23.7496 29.8194 23.0029 29.0725 23.0029 28.1505C23.0029 27.2288 23.7496 26.4815 24.6714 26.4815C25.5929 26.4815 26.34 27.2288 26.34 28.1505Z" fill="#DFE3E8"/>
<path fill-rule="evenodd" clip-rule="evenodd" d="M137.757 32.6317C137.757 34.1723 136.508 35.4212 134.968 35.4212C133.427 35.4212 132.179 34.1723 132.179 32.6317C132.179 31.0911 133.427 29.8422 134.968 29.8422C136.508 29.8422 137.757 31.0911 137.757 32.6317Z" fill="#F6F7F8"/>
<path fill-rule="evenodd" clip-rule="evenodd" d="M176.385 25.074C176.385 26.2963 175.395 27.2868 174.173 27.2868C172.951 27.2868 171.961 26.2963 171.961 25.074C171.961 23.8518 172.951 22.8613 174.173 22.8613C175.395 22.8613 176.385 23.8518 176.385 25.074Z" fill="#F6F7F8"/>
<path fill-rule="evenodd" clip-rule="evenodd" d="M57.5231 128.418C57.5231 129.188 56.8988 129.813 56.1285 129.813C55.3586 129.813 54.7344 129.188 54.7344 128.418C54.7344 127.647 55.3586 127.023 56.1285 127.023C56.8988 127.023 57.5231 127.647 57.5231 128.418Z" stroke="#D8DDE1" stroke-width="2.921" stroke-linecap="round"/>
<path fill-rule="evenodd" clip-rule="evenodd" d="M56.6935 17.4284C56.6935 18.3504 55.9464 19.0973 55.025 19.0973C54.1035 19.0973 53.3564 18.3504 53.3564 17.4284C53.3564 16.5067 54.1035 15.7594 55.025 15.7594C55.9464 15.7594 56.6935 16.5067 56.6935 17.4284Z" stroke="#D8DDE1" stroke-width="2.921" stroke-linecap="round"/>
<path fill-rule="evenodd" clip-rule="evenodd" d="M99.2538 143.864C98.1876 144.27 96.9943 143.734 96.5887 142.668C96.1831 141.602 96.7183 140.408 97.7849 140.003C98.8507 139.597 100.044 140.132 100.45 141.199C100.856 142.265 100.32 143.459 99.2538 143.864Z" stroke="#D8DDE1" stroke-width="2.921" stroke-linecap="round"/>
<g clip-path="url(#clip0_2718_1860)">
<path d="M109.297 50.3669H52.3523C51.5841 50.3674 50.8474 50.6728 50.3042 51.216C49.761 51.7593 49.4556 52.4959 49.4551 53.2642V105.512C49.4556 106.28 49.761 107.017 50.3042 107.56C50.8474 108.103 51.5841 108.409 52.3523 108.409H109.297C110.066 108.409 110.802 108.103 111.346 107.56C111.889 107.017 112.195 106.28 112.195 105.512V53.2642C112.195 52.4959 111.889 51.7592 111.346 51.2159C110.802 50.6727 110.066 50.3673 109.297 50.3669Z" fill="#C4CDD5"/>
<path d="M105.548 90.2534H56.1014C54.5013 90.2534 53.2041 88.9561 53.2041 87.3561V41.1926C53.2041 39.5925 54.5013 38.2953 56.1014 38.2953H105.548C107.148 38.2953 108.446 39.5925 108.446 41.1926V87.3561C108.446 88.9561 107.148 90.2534 105.548 90.2534Z" fill="#F6F7F8"/>
<path d="M54.1214 88.2731V42.1098C54.1214 40.5098 55.4186 39.2126 57.0187 39.2126H106.466C107.031 39.2126 107.556 39.3768 108.002 39.6566C107.489 38.8398 106.584 38.2953 105.548 38.2953H56.1014C54.5013 38.2953 53.2041 39.5925 53.2041 41.1926V87.3561C53.2041 88.3915 53.7486 89.2972 54.5654 89.8097C54.2856 89.3639 54.1214 88.8385 54.1214 88.2734V88.2731Z" fill="#F6F7FE"/>
<path d="M99.4648 48.0489H62.186V50.1734H99.4648V48.0489ZM99.4648 56.1609H62.186V58.2854H99.4648V56.1609ZM99.4648 64.2747H62.186V66.3992H99.4648V64.2747ZM99.4648 72.3867H62.186V74.5114H99.4648V72.3867Z" fill="white"/>
<path d="M66.6284 65.5295L75.9961 74.8974H66.6284V65.5295Z" fill="#C4CDD5"/>
<path d="M112.195 75.6701V54.1162L108.446 50.3669V75.6698H112.195V75.6701Z" fill="#C4CDD5"/>
<path d="M116.586 77.6197L112.547 106.213C112.345 107.642 111.122 108.705 109.678 108.705H51.9716C50.5281 108.705 49.3047 107.642 49.1028 106.213L43.6442 67.5765C43.398 65.8323 44.7515 64.2739 46.5131 64.2739H64.334C65.7776 64.2739 67.0009 65.3363 67.2029 66.7654L67.9182 71.8252C68.1202 73.2547 69.3435 74.3171 70.7871 74.3171H113.718C115.479 74.3171 116.832 75.8755 116.586 77.6197Z" fill="#D8DDE1"/>
<path d="M102.275 95.9511H59.3756C59.1404 95.951 58.9134 95.8652 58.737 95.7097C58.5606 95.5542 58.4469 95.3398 58.4173 95.1065L57.8806 90.8569C57.8635 90.721 57.8756 90.583 57.9159 90.4521C57.9563 90.3211 58.024 90.2003 58.1146 90.0975C58.2052 89.9948 58.3167 89.9124 58.4415 89.856C58.5664 89.7996 58.7018 89.7704 58.8388 89.7703H102.811C102.948 89.7704 103.084 89.7996 103.209 89.856C103.334 89.9124 103.445 89.9948 103.536 90.0975C103.626 90.2003 103.694 90.3211 103.734 90.4521C103.775 90.583 103.787 90.721 103.77 90.8569L103.233 95.1065C103.203 95.3398 103.09 95.5542 102.913 95.7097C102.737 95.8652 102.51 95.951 102.275 95.9511Z" fill="#C4CDD5"/>
</g>
<defs>
<clipPath id="clip0_2718_1860">
<rect width="73" height="73" fill="white" transform="translate(43.6152 37)"/>
</clipPath>
</defs>
</svg>
