<svg width="50" height="50" viewBox="0 0 50 50" fill="none" xmlns="http://www.w3.org/2000/svg">
<rect width="50" height="50" rx="12" fill="url(#paint0_linear_4035_153536)"/>
<path d="M39.5415 19.8802V33.2864C39.5415 37.2165 36.3537 40.4479 32.3799 40.4479H17.5764C13.6463 40.4479 10.4585 37.2601 10.4585 33.2864V16.8235C10.4585 12.8933 13.6463 9.70557 17.5764 9.70557H29.3231L39.5415 19.8802Z" fill="#F9FEFF"/>
<path d="M17.0928 21.3427C17.0928 22.1287 17.7478 22.7837 18.5338 22.7837H25.7391C26.5251 22.7837 27.1801 22.1287 27.1801 21.3427C27.1801 20.5566 26.5251 19.9016 25.7391 19.9016H18.5338C17.7041 19.9016 17.0928 20.513 17.0928 21.3427Z" fill="#1CC2FF"/>
<path d="M17.0928 28.3864C17.0928 29.1724 17.7478 29.8274 18.5338 29.8274H30.5862C31.3722 29.8274 32.0273 29.1724 32.0273 28.3864C32.0273 27.6003 31.3722 26.9453 30.5862 26.9453H18.5338C17.7041 26.9453 17.0928 27.6003 17.0928 28.3864Z" fill="#1CC2FF"/>
<path d="M39.495 19.7269H33.6871C31.2854 19.7269 29.3203 17.7618 29.3203 15.3601V9.55225L39.495 19.7269Z" fill="#1CC2FF"/>
<defs>
<linearGradient id="paint0_linear_4035_153536" x1="49.8858" y1="5.94685e-06" x2="5.94685e-06" y2="49.8858" gradientUnits="userSpaceOnUse">
<stop stop-color="#0795FF"/>
<stop offset="1" stop-color="#4FBFFD"/>
</linearGradient>
</defs>
</svg>
