<svg width="42" height="42" viewBox="0 0 42 42" fill="none" xmlns="http://www.w3.org/2000/svg">
<g id="vuesax/bulk/facebook">
<g id="facebook">
<g id="Group 8">
<path id="Vector" d="M28.3326 3.5H13.6851C7.31507 3.5 3.51758 7.2975 3.51758 13.6675V28.315C3.51758 34.685 7.31507 38.4825 13.6851 38.4825H28.3326C34.7026 38.4825 38.5001 34.685 38.5001 28.315V13.6675C38.5001 7.2975 34.7026 3.5 28.3326 3.5Z" fill="#2D99FF"/>
<path id="Vector_2" d="M24.3598 16.2396L24.4473 21.4021L29.0498 21.3321C29.3823 21.3321 29.6273 21.6296 29.5748 21.9446L28.9623 25.2871C28.9098 25.5321 28.6998 25.7071 28.4548 25.7246L24.5173 25.7946L24.7273 38.4821L19.4773 38.5696L19.2673 25.8821L16.2923 25.9346C15.9948 25.9346 15.7673 25.7071 15.7673 25.4096L15.7148 22.0846C15.7148 21.7871 15.9423 21.5596 16.2398 21.5596L19.2148 21.5071L19.1273 15.8196C19.0748 12.9146 21.3848 10.5346 24.2898 10.4821L29.0148 10.4121C29.3123 10.4121 29.5398 10.6396 29.5398 10.9371L29.6098 15.1371C29.6098 15.4346 29.3823 15.6621 29.0848 15.6621L24.8848 15.7321C24.5873 15.7146 24.3598 15.9596 24.3598 16.2396Z" fill="white"/>
</g>
</g>
</g>
</svg>
