<svg width="24" height="24" viewBox="0 0 24 24" xmlns="http://www.w3.org/2000/svg">
<path d="M16.1051 4.26547L12.2551 6.69819C12.1001 6.79638 11.9051 6.79638 11.7451 6.69819L7.89511 4.26547C7.62011 4.09092 7.55011 3.68183 7.76011 3.42547C7.90511 3.24547 8.07011 3.09819 8.24511 2.99456L10.9551 1.35819C11.5351 1.00365 12.4751 1.00365 13.0551 1.35819L15.7651 2.99456C15.9401 3.09819 16.1051 3.25092 16.2501 3.42547C16.4501 3.68183 16.3801 4.09092 16.1051 4.26547Z"/>
<path d="M11.715 7.7128V11.4328C11.715 11.8473 11.33 12.1201 10.99 11.9401C9.95999 11.3892 8.22499 10.3582 8.22499 10.3582C7.61499 9.98189 7.11499 9.03279 7.11499 8.25279V5.43825C7.11499 5.00734 7.52999 4.73461 7.86999 4.94734L11.465 7.22189C11.615 7.32552 11.715 7.51098 11.715 7.7128Z"/>
<path d="M12.2849 7.7128V11.4328C12.2849 11.8473 12.6699 12.1201 13.0099 11.9401C14.0399 11.3892 15.7749 10.3582 15.7749 10.3582C16.3849 9.98189 16.8849 9.03279 16.8849 8.25279V5.43825C16.8849 5.00734 16.4699 4.73461 16.1299 4.94734L12.5349 7.22189C12.3849 7.32552 12.2849 7.51098 12.2849 7.7128Z"/>
<path d="M10.1051 15.1746L6.25511 17.6074C6.10011 17.7056 5.90511 17.7056 5.74511 17.6074L1.89511 15.1746C1.62011 15.0001 1.55011 14.591 1.76011 14.3346C1.90511 14.1546 2.07011 14.0074 2.24511 13.9037L4.95511 12.2674C5.53511 11.9128 6.47511 11.9128 7.05511 12.2674L9.76511 13.9037C9.94011 14.0074 10.1051 14.1601 10.2501 14.3346C10.4501 14.591 10.3801 15.0001 10.1051 15.1746Z"/>
<path d="M5.71499 18.622V22.342C5.71499 22.7565 5.32999 23.0292 4.98999 22.8492C3.95999 22.2983 2.22499 21.2674 2.22499 21.2674C1.61499 20.8911 1.11499 19.942 1.11499 19.162V16.3474C1.11499 15.9165 1.52999 15.6438 1.86999 15.8565L5.46499 18.1311C5.61499 18.2347 5.71499 18.4202 5.71499 18.622Z"/>
<path d="M6.28491 18.622V22.342C6.28491 22.7565 6.66991 23.0292 7.00991 22.8492C8.03991 22.2983 9.77491 21.2674 9.77491 21.2674C10.3849 20.8911 10.8849 19.942 10.8849 19.162V16.3474C10.8849 15.9165 10.4699 15.6438 10.1299 15.8565L6.53491 18.1311C6.38491 18.2347 6.28491 18.4202 6.28491 18.622Z"/>
<path d="M22.1051 15.1746L18.2551 17.6074C18.1001 17.7056 17.9051 17.7056 17.7451 17.6074L13.8951 15.1746C13.6201 15.0001 13.5501 14.591 13.7601 14.3346C13.9051 14.1546 14.0701 14.0074 14.2451 13.9037L16.9551 12.2674C17.5351 11.9128 18.4751 11.9128 19.0551 12.2674L21.7651 13.9037C21.9401 14.0074 22.1051 14.1601 22.2501 14.3346C22.4501 14.591 22.3801 15.0001 22.1051 15.1746Z"/>
<path d="M17.715 18.622V22.342C17.715 22.7565 17.33 23.0292 16.99 22.8492C15.96 22.2983 14.225 21.2674 14.225 21.2674C13.615 20.8911 13.115 19.942 13.115 19.162V16.3474C13.115 15.9165 13.53 15.6438 13.87 15.8565L17.465 18.1311C17.615 18.2347 17.715 18.4202 17.715 18.622Z"/>
<path d="M18.2849 18.622V22.342C18.2849 22.7565 18.6699 23.0292 19.0099 22.8492C20.0399 22.2983 21.7749 21.2674 21.7749 21.2674C22.3849 20.8911 22.8849 19.942 22.8849 19.162V16.3474C22.8849 15.9165 22.4699 15.6438 22.1299 15.8565L18.5349 18.1311C18.3849 18.2347 18.2849 18.4202 18.2849 18.622Z"/>
</svg>
