<svg width="42" height="42" viewBox="0 0 42 42" fill="none" xmlns="http://www.w3.org/2000/svg">
<g id="instagram">
<path id="Vector" d="M28.3325 3.5H13.6675C7.2975 3.5 3.5 7.2975 3.5 13.6675V28.315C3.5 34.7025 7.2975 38.5 13.6675 38.5H28.315C34.685 38.5 38.4825 34.7025 38.4825 28.3325V13.6675C38.5 7.2975 34.7025 3.5 28.3325 3.5Z" fill="#2D99FF"/>
<path id="Vector_2" d="M21 27.7909C24.75 27.7909 27.79 24.751 27.79 21.0009C27.79 17.2509 24.75 14.2109 21 14.2109C17.2499 14.2109 14.21 17.2509 14.21 21.0009C14.21 24.751 17.2499 27.7909 21 27.7909Z" fill="white"/>
<path id="Vector_3" d="M29.75 13.1246C29.2775 13.1246 28.84 12.9496 28.5075 12.6171C28.35 12.4421 28.2275 12.2496 28.14 12.0396C28.0525 11.8296 28 11.6021 28 11.3746C28 11.1471 28.0525 10.9196 28.14 10.7096C28.2275 10.4821 28.35 10.3071 28.5075 10.1321C28.91 9.72959 29.5225 9.53709 30.0825 9.65959C30.205 9.67709 30.31 9.71209 30.415 9.76459C30.52 9.79959 30.625 9.85209 30.73 9.92209C30.8175 9.97459 30.905 10.0621 30.9925 10.1321C31.15 10.3071 31.2725 10.4821 31.36 10.7096C31.4475 10.9196 31.5 11.1471 31.5 11.3746C31.5 11.6021 31.4475 11.8296 31.36 12.0396C31.2725 12.2496 31.15 12.4421 30.9925 12.6171C30.8175 12.7746 30.625 12.8971 30.415 12.9846C30.205 13.0721 29.9775 13.1246 29.75 13.1246Z" fill="white"/>
</g>
</svg>
