<svg width="107" height="90" viewBox="0 0 107 90" fill="none" xmlns="http://www.w3.org/2000/svg">
<g id="Image icon">
<g id="Image icon_2">
<path d="M53.4281 89.9919C37.869 89.9919 22.3099 89.9919 6.75085 89.9919C5.99081 89.9919 5.22093 89.9919 4.45761 89.9163C0.56238 89.5666 -1.00358 87.0431 0.657385 83.6312C2.09885 80.6856 3.67136 77.8155 5.198 74.9014C12.4053 61.1803 19.6126 47.4613 26.82 33.7444C27.0427 33.3254 27.2753 32.9064 27.5342 32.5063C29.3491 29.7088 32.2975 29.315 34.6203 31.7282C36.2583 33.4168 37.6441 35.3133 39.1052 37.1437C46.5309 46.4752 53.9566 55.811 61.3824 65.1509C64.6257 69.2149 68.7109 69.4354 72.521 65.781C74.4112 63.9663 76.2589 62.1044 78.1722 60.3055C81.6218 57.0606 85.5367 57.2559 88.3541 61.0396C94.0086 68.6321 99.5222 76.3254 105.062 83.9935C105.495 84.5951 105.827 85.2585 106.045 85.9594C106.582 87.7204 105.822 89.1381 103.965 89.6075C102.8 89.8757 101.604 89.9995 100.407 89.9761C84.7559 90.0013 69.0964 90.0066 53.4281 89.9919Z" fill="#83CFFF"/>
<path d="M88.3213 14.8073C88.3174 17.736 87.4092 20.5976 85.712 23.0293C84.0147 25.461 81.6049 27.3534 78.7879 28.4664C75.971 29.5795 72.8738 29.8631 69.889 29.2814C66.9042 28.6997 64.1663 27.2788 62.0223 25.1988C59.8782 23.1189 58.4247 20.4736 57.846 17.5983C57.2672 14.723 57.5893 11.7472 58.7714 9.04814C59.9535 6.34908 61.9423 4.04833 64.4858 2.43757C67.0292 0.826808 70.0128 -0.0214234 73.0582 0.000411173C77.1134 0.0499681 80.9861 1.62995 83.8412 4.39975C86.6963 7.16955 88.3053 10.9073 88.3213 14.8073Z" fill="#83CFFF"/>
</g>
</g>
</svg>
