<svg width="42" height="44" viewBox="0 0 42 44" fill="none" xmlns="http://www.w3.org/2000/svg">
<path d="M28.3325 3.5H13.6675C7.2975 3.5 3.5 7.2975 3.5 13.6675V28.315C3.5 34.7025 7.2975 38.5 13.6675 38.5H28.315C34.685 38.5 38.4825 34.7025 38.4825 28.3325V13.6675C38.5 7.2975 34.7025 3.5 28.3325 3.5Z" fill="#2D99FF"/>
<path fill-rule="evenodd" clip-rule="evenodd" d="M0 23C0 11.4021 9.40159 2.00029 20.9995 2C32.5966 2.00029 41.9979 11.4017 41.9979 22.9989C41.9979 34.5963 32.5963 43.9979 20.9989 43.9979C9.40154 43.9979 0 34.5963 0 22.9989C0 11.4015 9.40154 2 20.9989 2C20.9991 2 20.9993 2 20.9995 2C20.9996 2 20.9998 2 21 2C32.5981 2 42 11.4019 42 23C42 34.5981 32.5981 44 21 44C9.40188 44 0 34.5981 0 23ZM11.6069 31.7041H15.8594V18.0191H11.6069V31.7041ZM11.4953 14.2106C11.4953 15.3875 12.3637 16.3391 13.7069 16.3391C15.1331 16.3391 15.9994 15.3875 15.9994 14.2106C15.9731 13.0097 15.1331 12.0866 13.7616 12.0866C12.39 12.0866 11.4953 13.0097 11.4953 14.2106ZM27.1381 31.7041H31.3906V23.6125C31.3906 19.5831 29.2928 17.7084 26.495 17.7084C24.2003 17.7084 22.8287 19.0253 22.2687 19.9178H22.1834L21.9887 18.0169H18.2941C18.3509 19.2462 18.4056 20.6747 18.4056 22.3831V31.7019H22.6603V23.8116C22.6603 23.42 22.6887 23.0263 22.8025 22.7484C23.1109 21.9675 23.8087 21.1559 24.9834 21.1559C26.5212 21.1559 27.1381 22.3547 27.1381 24.12V31.7041Z" fill="white"/>
</svg>
