<svg width="42" height="42" viewBox="0 0 42 42" fill="none" xmlns="http://www.w3.org/2000/svg">
<g id="vuesax/bulk/map">
<g id="map">
<path id="Vector" d="M34.7898 36.6455C33.1273 37.8705 30.9398 38.5005 28.3323 38.5005H13.6673C13.2473 38.5005 12.8273 38.483 12.4248 38.4305L24.4998 26.3555L34.7898 36.6455Z" fill="#2D99FF"/>
<path id="Vector_2" d="M38.5 13.6683V28.3333C38.5 30.9408 37.87 33.1283 36.645 34.7908L26.355 24.5008L38.43 12.4258C38.4825 12.8283 38.5 13.2483 38.5 13.6683Z" fill="#2D99FF"/>
<path id="Vector_3" d="M26.355 24.5L36.645 34.79C36.1375 35.525 35.525 36.1375 34.79 36.645L24.5 26.355L12.425 38.43C11.305 38.36 10.29 38.1325 9.36251 37.7825C5.61751 36.4175 3.5 33.0925 3.5 28.3325V13.6675C3.5 7.2975 7.2975 3.5 13.6675 3.5H28.3325C33.0925 3.5 36.4175 5.6175 37.7825 9.3625C38.1325 10.29 38.36 11.305 38.43 12.425L26.355 24.5Z" fill="#2D99FF"/>
<path id="Vector_4" d="M26.3548 24.5008L36.6448 34.7908C36.1373 35.5258 35.5248 36.1383 34.7898 36.6458L24.4998 26.3558L12.4248 38.4308C11.3048 38.3608 10.2898 38.1333 9.3623 37.7833L10.0448 37.1008L37.7823 9.36328C38.1323 10.2908 38.3598 11.3058 38.4298 12.4258L26.3548 24.5008Z" fill="white"/>
<path id="Vector_5" d="M21.4199 13.8777C20.7549 10.9902 18.1999 9.69523 15.9599 9.67773C13.7199 9.67773 11.1649 10.9727 10.4999 13.8602C9.76492 17.0627 11.7249 19.7402 13.4924 21.4202C14.1924 22.0852 15.0674 22.4002 15.9599 22.4002C16.8524 22.4002 17.7274 22.0677 18.4274 21.4202C20.1949 19.7402 22.1549 17.0627 21.4199 13.8777ZM16.0124 16.6077C15.0499 16.6077 14.2624 15.8202 14.2624 14.8577C14.2624 13.8952 15.0324 13.1077 16.0124 13.1077H16.0299C16.9924 13.1077 17.7799 13.8952 17.7799 14.8577C17.7799 15.8202 16.9749 16.6077 16.0124 16.6077Z" fill="white"/>
</g>
</g>
</svg>
