<svg width="42" height="42" viewBox="0 0 42 42" fill="none" xmlns="http://www.w3.org/2000/svg">
<g id="vuesax/bulk/sms">
<g id="sms">
<path id="Vector" d="M29.75 35.875H12.25C7 35.875 3.5 33.25 3.5 27.125V14.875C3.5 8.75 7 6.125 12.25 6.125H29.75C35 6.125 38.5 8.75 38.5 14.875V27.125C38.5 33.25 35 35.875 29.75 35.875Z" fill="#2D99FF"/>
<g id="Group">
<path id="Vector_2" d="M20.9999 22.5229C19.5299 22.5229 18.0424 22.0679 16.9049 21.1404L11.4274 16.7654C10.8674 16.3104 10.7624 15.4879 11.2174 14.9279C11.6724 14.3679 12.4949 14.2629 13.0549 14.7179L18.5323 19.0929C19.8623 20.1604 22.1198 20.1604 23.4498 19.0929L28.9274 14.7179C29.4874 14.2629 30.3274 14.3504 30.7649 14.9279C31.2199 15.4879 31.1324 16.3279 30.5549 16.7654L25.0774 21.1404C23.9574 22.0679 22.4699 22.5229 20.9999 22.5229Z" fill="white"/>
</g>
</g>
</g>
</svg>
