<svg width="25" height="24" viewBox="0 0 25 24" fill="none" xmlns="http://www.w3.org/2000/svg">
<g id="vuesax/bold/timer-start">
<g id="timer-start">
<path id="Vector" d="M14.9012 3.45H9.12124C8.72124 3.45 8.40125 3.13 8.40125 2.73C8.40125 2.33 8.72124 2 9.12124 2H14.9012C15.3012 2 15.6212 2.32 15.6212 2.72C15.6212 3.12 15.3012 3.45 14.9012 3.45Z" fill="#637381"/>
<path id="Vector_2" d="M19.9812 15H17.0412C15.7712 15 15.0112 15.76 15.0112 17.03V19.97C15.0112 21.24 15.7712 22 17.0412 22H19.9812C21.2512 22 22.0112 21.24 22.0112 19.97V17.03C22.0112 15.76 21.2512 15 19.9812 15ZM19.7012 19.46L18.5212 20.14C18.2812 20.28 18.0412 20.35 17.8212 20.35C17.6512 20.35 17.5012 20.31 17.3612 20.23C17.0412 20.04 16.8612 19.67 16.8612 19.18V17.82C16.8612 17.33 17.0412 16.96 17.3612 16.77C17.6812 16.58 18.0912 16.62 18.5212 16.86L19.7012 17.54C20.1212 17.79 20.3612 18.13 20.3612 18.5C20.3612 18.87 20.1312 19.21 19.7012 19.46Z" fill="#637381"/>
<path id="Vector_3" d="M14.0112 19.97V17.03C14.0112 15.22 15.2312 14 17.0412 14H19.9812C20.2112 14 20.4312 14.02 20.6412 14.06C20.6612 13.82 20.6812 13.58 20.6812 13.33C20.6812 8.54002 16.7912 4.65002 12.0112 4.65002C7.23125 4.65002 3.34125 8.54002 3.34125 13.33C3.34125 18.11 7.23125 22 12.0112 22C12.8612 22 13.6712 21.86 14.4512 21.64C14.1712 21.17 14.0112 20.61 14.0112 19.97ZM12.7612 13C12.7612 13.41 12.4212 13.75 12.0112 13.75C11.6012 13.75 11.2612 13.41 11.2612 13V8.00002C11.2612 7.59002 11.6012 7.25002 12.0112 7.25002C12.4212 7.25002 12.7612 7.59002 12.7612 8.00002V13Z" fill="#637381"/>
</g>
</g>
</svg>
