<svg width="22" height="22" viewBox="0 0 22 22" fill="none" xmlns="http://www.w3.org/2000/svg">
<g id="icon/navbar/ic_user">
<g id="Group 1261153413">
<path id="Subtract" fill-rule="evenodd" clip-rule="evenodd" d="M10 18.1818C10 18.3988 10.1054 18.6069 10.2929 18.7604C10.4804 18.9138 10.7348 19 11 19H14C14.7957 19 15.5587 18.7414 16.1213 18.2811C16.6839 17.8208 17 17.1964 17 16.5455V15.7273C17.2626 15.7273 17.5227 15.6849 17.7654 15.6027C18.008 15.5205 18.2285 15.3999 18.4142 15.248C18.5999 15.096 18.7472 14.9157 18.8478 14.7171C18.9483 14.5186 19 14.3058 19 14.0909V10.8182C19 10.6033 18.9483 10.3905 18.8478 10.192C18.7472 9.99344 18.5999 9.81305 18.4142 9.6611C18.2285 9.50915 18.008 9.38861 17.7654 9.30638C17.5227 9.22414 17.2626 9.18182 17 9.18182V6.72727C17 5.20831 16.2625 3.75155 14.9497 2.67748C13.637 1.60341 11.8565 1 10 1V2.63636C11.3261 2.63636 12.5979 3.06737 13.5355 3.83456C14.4732 4.60176 15 5.6423 15 6.72727V9.18182C14.7348 9.18182 14.4804 9.26802 14.2929 9.42146C14.1054 9.5749 14 9.783 14 10V14.9091C14 15.1261 14.1054 15.3342 14.2929 15.4876C14.4804 15.6411 14.7348 15.7273 15 15.7273V16.5455C15 16.7624 14.8946 16.9706 14.7071 17.124C14.5196 17.2774 14.2652 17.3636 14 17.3636H10.5C10.3674 17.3636 10.2402 17.4067 10.1464 17.4835C10.0527 17.5602 10 17.6642 10 17.7727V18.1818Z" fill="#637381"/>
<path id="Intersect" fill-rule="evenodd" clip-rule="evenodd" d="M10 1C8.14348 1 6.36301 1.60341 5.05025 2.67748C3.7375 3.75155 3 5.20831 3 6.72727V9.18182C2.73736 9.18182 2.47728 9.22414 2.23463 9.30638C1.99198 9.38861 1.7715 9.50915 1.58579 9.6611C1.40007 9.81305 1.25275 9.99344 1.15224 10.192C1.05173 10.3905 1 10.6033 1 10.8182V14.0909C1 14.3058 1.05173 14.5186 1.15224 14.7171C1.25275 14.9157 1.40007 15.096 1.58579 15.248C1.7715 15.3999 1.99198 15.5205 2.23463 15.6027C2.47728 15.6849 2.73736 15.7273 3 15.7273H5C5.26522 15.7273 5.51957 15.6411 5.70711 15.4876C5.89464 15.3342 6 15.1261 6 14.9091V10C6 9.783 5.89464 9.5749 5.70711 9.42146C5.51957 9.26802 5.26522 9.18182 5 9.18182V6.72727C5 5.6423 5.52678 4.60176 6.46447 3.83456C7.40215 3.06737 8.67392 2.63636 10 2.63636V1Z" fill="#B4BCC3"/>
</g>
</g>
</svg>
