<svg width="41" height="24" viewBox="0 0 41 24" xmlns="http://www.w3.org/2000/svg">
  <g clip-path="url(#clip0_9572_11307)">
    <path d="M3.72695 0H36.414C38.4826 0 40.1572 1.67451 40.1572 3.74322V16.2204C40.1572 18.2889 38.4827 19.9636 36.414 19.9636H24.6921L26.3011 23.9037L19.2251 19.9636H3.74358C1.67503 19.9636 0.000363829 18.2891 0.000363829 16.2204V3.74322C-0.0160534 1.69098 1.6584 0 3.72695 0Z"/>
    <path class="invert-color" d="M2.28671 3.41169C2.51524 3.10154 2.85805 2.93829 3.31511 2.90565C4.14763 2.84035 4.62103 3.23213 4.7353 4.08097C5.24134 7.49274 5.79635 10.382 6.38409 12.7491L9.95899 5.94199C10.2855 5.32168 10.6936 4.9952 11.1833 4.96256C11.9015 4.91359 12.3423 5.37065 12.5218 6.33377C12.9299 8.50491 13.4523 10.3495 14.0726 11.9165C14.497 7.77017 15.2153 4.78303 16.2274 2.93832C16.4723 2.48126 16.8314 2.25272 17.3048 2.22006C17.6803 2.18742 18.0231 2.30168 18.3332 2.54654C18.6434 2.7914 18.8066 3.10155 18.8393 3.477C18.8556 3.77084 18.8066 4.01569 18.676 4.26055C18.0394 5.43588 17.517 7.41114 17.0927 10.1534C16.6846 12.8143 16.5376 14.8874 16.6356 16.3729C16.6682 16.781 16.6029 17.1401 16.4397 17.4502C16.2438 17.8094 15.95 18.0053 15.5745 18.0379C15.1501 18.0705 14.7094 17.8747 14.2849 17.4339C12.7668 15.8831 11.5588 13.5652 10.6774 10.4799C9.61637 12.5693 8.83287 14.1365 8.32683 15.1812C7.36373 17.0258 6.54754 17.9726 5.86189 18.0215C5.42114 18.0542 5.04569 17.6787 4.71921 16.8952C3.88669 14.7567 2.98885 10.6268 2.02572 4.50537C1.96042 4.08094 2.05837 3.70549 2.28689 3.41166L2.28671 3.41169ZM37.3675 5.97451C36.7798 4.9461 35.9147 4.32573 34.7557 4.08086C34.4456 4.01557 34.1517 3.98292 33.8742 3.98292C32.3071 3.98292 31.0339 4.79912 30.0382 6.43155C29.1893 7.81908 28.7649 9.35359 28.7649 11.0348C28.7649 12.2918 29.0261 13.3691 29.5484 14.267C30.1361 15.2954 31.0013 15.9158 32.1602 16.1606C32.4703 16.2259 32.7642 16.2586 33.0417 16.2586C34.6251 16.2586 35.8983 15.4424 36.8778 13.81C37.7266 12.4061 38.151 10.8716 38.151 9.19035C38.1674 7.91708 37.8899 6.85608 37.3675 5.97451ZM35.3107 10.4962C35.0822 11.5736 34.6741 12.3734 34.0701 12.9122C33.5967 13.3367 33.156 13.5162 32.7479 13.4346C32.3561 13.353 32.0296 13.0102 31.7847 12.3736C31.5889 11.8675 31.4909 11.3615 31.4909 10.8881C31.4909 10.48 31.5236 10.0719 31.6052 9.69644C31.7521 9.02715 32.0296 8.3742 32.4703 7.75385C33.009 6.95398 33.5804 6.6275 34.1681 6.74177C34.5598 6.82339 34.8863 7.1662 35.1312 7.80282C35.3271 8.30886 35.425 8.8149 35.425 9.2883C35.425 9.71272 35.3923 10.1208 35.3107 10.4962ZM27.1487 5.97451C26.561 4.9461 25.6795 4.32573 24.5369 4.08086C24.2268 4.01557 23.9329 3.98292 23.6554 3.98292C22.0883 3.98292 20.8151 4.79912 19.8193 6.43155C18.9705 7.81908 18.5461 9.35359 18.5461 11.0348C18.5461 12.2918 18.8072 13.3691 19.3296 14.267C19.9173 15.2954 20.7824 15.9158 21.9414 16.1606C22.2515 16.2259 22.5454 16.2586 22.8229 16.2586C24.4062 16.2586 25.6795 15.4424 26.6589 13.81C27.5078 12.4061 27.9322 10.8716 27.9322 9.19035C27.9322 7.91708 27.671 6.85608 27.1487 5.97451ZM25.0756 10.4962C24.847 11.5736 24.4389 12.3734 23.835 12.9122C23.3616 13.3367 22.9208 13.5162 22.5127 13.4346C22.1209 13.353 21.7945 13.0102 21.5496 12.3736C21.3537 11.8675 21.2558 11.3615 21.2558 10.8881C21.2558 10.48 21.2884 10.0719 21.37 9.69644C21.517 9.02715 21.7945 8.3742 22.2352 7.75385C22.7739 6.95398 23.3452 6.6275 23.9329 6.74177C24.3247 6.82339 24.6512 7.1662 24.896 7.80282C25.0919 8.30886 25.1899 8.8149 25.1899 9.2883C25.2062 9.71272 25.1572 10.1208 25.0756 10.4962Z" fill="white"/>
  </g>
  <defs>
    <clipPath id="clip0_9572_11307">
      <rect class="invert-color" width="40.1569" height="24" fill="white"/>
    </clipPath>
  </defs>
</svg>
