<svg width="96" height="127" viewBox="0 0 96 127" fill="none" xmlns="http://www.w3.org/2000/svg">
<path d="M91.5043 17.9432C85.1614 22.8205 79.809 27.1199 75.582 30.574C72.3706 33.2077 70.2471 34.9935 66.2002 38.4101C56.5233 46.5813 54.1272 48.8323 52.2739 50.6857C49.1074 53.8346 46.6763 56.5859 45.0881 58.4717C46.1272 54.6146 46.9274 50.697 47.4842 46.7414C48.1895 41.7141 47.9644 40.4535 48.4321 31.5695C48.4721 30.7541 49.0624 19.564 48.9324 5.6151C48.9073 3.02142 48.8573 0.317679 47.8344 0.0250454C47.7725 0.00780981 47.7085 -0.00060994 47.6443 3.43602e-05C46.1761 3.43602e-05 43.6624 4.28449 42.3919 7.66103C41.3521 10.4544 40.8432 13.4173 40.8912 16.3975C40.8362 20.6495 40.8337 24.0735 40.8412 26.3296C40.8712 34.871 41.0613 38.0624 40.7936 43.5874C40.6011 47.5292 40.2709 50.6982 40.0433 52.6216C39.8349 53.8421 39.6281 55.0635 39.423 56.2857C38.7192 57.9523 37.8924 59.5641 36.9494 61.1079C35.056 64.1994 32.7675 66.8606 26.7697 72.033C21.9925 76.1473 18.6485 79.0361 13.3911 82.4677C9.32309 85.1335 5.07028 87.5054 0.665144 89.5654C0.269871 89.7503 0.0275431 90.1711 0.141481 90.5923C0.408455 91.5793 0.959467 92.4725 1.73357 93.1566C2.25882 93.6208 2.93634 94.2234 3.65199 94.6735C4.72916 95.351 6.05526 95.1283 7.27488 94.7653C7.92788 94.5709 8.56331 94.3211 9.16904 94.0092C14.2391 91.3989 19.0751 88.3559 23.6233 84.9138C28.384 81.3095 32.8105 77.2839 36.8493 72.8858C35.1861 81.4597 36.9344 89.0582 41.2413 92.0521C42.9411 93.2303 44.9224 93.9379 46.984 94.103C47.8919 94.1305 50.0379 94.0605 53.0743 92.2572C57.9765 89.3433 63.0488 83.1755 64.667 74.9668C65.3949 71.2526 66.5254 65.5275 63.0563 60.9604C61.6272 59.1391 59.7294 57.741 57.5663 56.916C59.067 55.8255 61.2205 54.2073 63.7041 52.1264C67.1457 49.245 69.1316 47.2341 72.7883 43.64C86.3445 30.3239 86.8622 29.8237 86.8622 29.8237C90.5564 25.7443 93.1651 22.6354 93.7929 21.75C93.9704 21.4999 94.2306 21.0872 94.4456 20.7495L94.8681 20.0676C95.3527 19.2855 95.3195 18.2887 94.784 17.5405C94.5678 17.2385 94.236 17.0243 93.8659 17.0558C93.1934 17.1133 92.3597 17.3984 91.5043 17.9432ZM58.9619 71.6803C59.6047 73.2735 59.1495 74.7867 58.9619 75.407C58.0215 78.5509 54.3874 82.3577 50.1779 81.2321C46.8964 80.3467 44.6029 76.8451 45.1531 73.4111C45.5883 70.7148 47.6768 68.7615 49.8128 68.0211C53.3644 66.7906 57.7039 68.5564 58.9619 71.6803Z" fill="#3366FF"/>
<path d="M42.5589 111.062L46.1444 113.273C46.3492 113.399 46.6149 113.362 46.7767 113.184L50.0065 109.633L53.1839 105.817C53.3651 105.599 53.3296 105.275 53.1056 105.102L50.0065 102.704L46.3495 100.424C46.1448 100.297 45.8783 100.333 45.7157 100.511L42.3441 104.204L39.4305 107.821C39.2591 108.034 39.2902 108.345 39.5002 108.519L42.5589 111.062Z" fill="#3366FF"/>
<path d="M43.482 124.534L47.0675 126.745C47.2723 126.871 47.538 126.834 47.6998 126.656L50.9296 123.106L54.107 119.289C54.2882 119.072 54.2527 118.747 54.0287 118.574L50.9296 116.176L47.2726 113.896C47.0679 113.769 46.8014 113.806 46.6388 113.984L43.2672 117.677L40.3536 121.293C40.1822 121.506 40.2133 121.817 40.4233 121.992L43.482 124.534Z" fill="#3366FF"/>
</svg>
