<svg width="40" height="40" viewBox="0 0 40 40" fill="none" xmlns="http://www.w3.org/2000/svg">
<path fill-rule="evenodd" clip-rule="evenodd" d="M5.94 10C5.42085 10 5 10.4209 5 10.94V12.3933C5 12.9125 5.42085 13.3333 5.94 13.3333H34.06C34.5791 13.3333 35 12.9125 35 12.3933V10.94C35 10.4209 34.5791 10 34.06 10H5.94ZM6.66667 21.6667C7.58714 21.6667 8.33333 20.9205 8.33333 20C8.33333 19.0795 7.58714 18.3333 6.66667 18.3333C5.74619 18.3333 5 19.0795 5 20C5 20.9205 5.74619 21.6667 6.66667 21.6667ZM12.6067 18.3333C12.0875 18.3333 11.6667 18.7542 11.6667 19.2733V20.7267C11.6667 21.2458 12.0875 21.6667 12.6067 21.6667H34.06C34.5791 21.6667 35 21.2458 35 20.7267V19.2733C35 18.7542 34.5791 18.3333 34.06 18.3333H12.6067ZM5 27.6067C5 27.0875 5.42085 26.6667 5.94 26.6667H34.06C34.5791 26.6667 35 27.0875 35 27.6067V29.06C35 29.5791 34.5791 30 34.06 30H5.94C5.42085 30 5 29.5791 5 29.06V27.6067Z" fill="#637381"/>
</svg>
