<svg width="22" height="22" viewBox="0 0 22 22" fill="none" xmlns="http://www.w3.org/2000/svg">
<g id="vuesax/bold/menu-board">
<g id="menu-board">
<path id="Vector" d="M19.1577 9.02917L19.6985 18.095C19.7168 18.3425 19.5977 18.5075 19.5335 18.5808C19.4602 18.6633 19.3043 18.7917 19.0477 18.7917H16.5452L18.5252 9.02917H19.1577ZM20.166 5.5L20.1568 5.51833C20.1752 5.73833 20.1568 5.9675 20.1018 6.19667L13.346 18.5992C13.126 19.525 12.301 20.1667 11.3477 20.1667H19.0477C20.2302 20.1667 21.1652 19.1675 21.0735 17.985L20.166 5.5Z" fill="#3366FF"/>
<path id="Vector_2" d="M10.4959 2.05263C10.5876 1.68596 10.3584 1.31013 9.99172 1.21846C9.62505 1.13596 9.24922 1.35596 9.15755 1.72263L8.69922 3.62013H10.1109L10.4959 2.05263Z" fill="#3366FF"/>
<path id="Vector_3" d="M16.5452 2.02552C16.6277 1.64968 16.3893 1.29218 16.0135 1.20968C15.6468 1.12718 15.2802 1.36552 15.1977 1.74135L14.7852 3.63885H16.1968L16.5452 2.02552Z" fill="#3366FF"/>
<path id="Vector_4" d="M20.0027 4.88549C19.7002 4.15216 18.9852 3.62966 18.1052 3.62966H16.1986L15.6852 6.00383C15.6119 6.32466 15.3277 6.54466 15.0161 6.54466C14.9702 6.54466 14.9152 6.54466 14.8694 6.52633C14.5027 6.44383 14.2644 6.07716 14.3377 5.71049L14.7869 3.62049H10.1119L9.53441 6.00383C9.46108 6.3155 9.17691 6.52633 8.86524 6.52633C8.81024 6.52633 8.75524 6.51716 8.70024 6.50799C8.33358 6.41633 8.10441 6.04966 8.19608 5.67383L8.69108 3.61133H6.83024C5.93191 3.61133 5.13441 4.19799 4.86858 5.05966L1.00941 17.4805C0.606077 18.8097 1.58691 20.1663 2.97108 20.1663H15.0161C15.9694 20.1663 16.7944 19.5247 17.0144 18.5988L20.1036 6.19633C20.1586 5.96716 20.1769 5.73799 20.1586 5.51799C20.1402 5.29799 20.0944 5.07799 20.0027 4.88549ZM13.4761 15.3538H6.14274C5.76691 15.3538 5.45524 15.0422 5.45524 14.6663C5.45524 14.2905 5.76691 13.9788 6.14274 13.9788H13.4761C13.8519 13.9788 14.1636 14.2905 14.1636 14.6663C14.1636 15.0422 13.8519 15.3538 13.4761 15.3538ZM14.3927 11.6872H7.05941C6.68358 11.6872 6.37191 11.3755 6.37191 10.9997C6.37191 10.6238 6.68358 10.3122 7.05941 10.3122H14.3927C14.7686 10.3122 15.0802 10.6238 15.0802 10.9997C15.0802 11.3755 14.7686 11.6872 14.3927 11.6872Z" fill="#3366FF"/>
</g>
</g>
</svg>
