<svg width="41" height="40" viewBox="0 0 41 40" fill="none" xmlns="http://www.w3.org/2000/svg">
<g id="vuesax/bold/more-square">
<g id="more-square">
<path id="Vector" d="M27.5797 3.33398H13.613C7.54635 3.33398 3.92969 6.95065 3.92969 13.0173V26.9673C3.92969 33.0507 7.54635 36.6673 13.613 36.6673H27.563C33.6297 36.6673 37.2464 33.0507 37.2464 26.984V13.0173C37.263 6.95065 33.6464 3.33398 27.5797 3.33398ZM13.9297 21.6673C12.9964 21.6673 12.263 20.9173 12.263 20.0007C12.263 19.084 13.013 18.334 13.9297 18.334C14.8464 18.334 15.5964 19.084 15.5964 20.0007C15.5964 20.9173 14.863 21.6673 13.9297 21.6673ZM20.5964 21.6673C19.663 21.6673 18.9297 20.9173 18.9297 20.0007C18.9297 19.084 19.6797 18.334 20.5964 18.334C21.513 18.334 22.263 19.084 22.263 20.0007C22.263 20.9173 21.5297 21.6673 20.5964 21.6673ZM27.263 21.6673C26.3297 21.6673 25.5964 20.9173 25.5964 20.0007C25.5964 19.084 26.3464 18.334 27.263 18.334C28.1797 18.334 28.9297 19.084 28.9297 20.0007C28.9297 20.9173 28.1964 21.6673 27.263 21.6673Z" fill="#826AF9"/>
</g>
</g>
</svg>
