<svg width="74" height="74" viewBox="0 0 74 74" fill="none" xmlns="http://www.w3.org/2000/svg">
<g id="download - 2023-10-14T131853.802">
<path id="Vector" d="M26.4441 16.7832L26.4639 16.8523C26.1777 16.8029 25.8916 16.7832 25.6055 16.7832H26.4441Z" fill="#EFA130"/>
<g id="Group 1261153648">
<path id="Vector_2" d="M41.5602 20.6825H40.4243C40.3525 20.6825 40.3047 20.6347 40.3047 20.5629C40.3047 20.4912 40.3525 20.4434 40.4243 20.4434H41.5602C41.632 20.4434 41.6798 20.4912 41.6798 20.5629C41.6798 20.6347 41.632 20.6825 41.5602 20.6825Z" fill="#8D95FF"/>
<path id="Vector_3" d="M64.2067 59.7361C63.8839 60.047 63.3817 60.334 62.724 60.5851C55.9201 63.2637 32.9493 63.18 35.5561 59.5807C36.8714 57.7631 37.0269 55.826 36.9432 53.3746C36.8834 51.6049 36.716 49.5721 36.7758 47.1447C33.045 52.2147 28.7522 50.2417 25.6312 46.3913C24.5909 45.1119 23.694 43.6291 22.9766 42.1224C21.4221 38.8341 20.7883 35.4381 21.7569 33.9314C22.7853 32.3291 24.4354 32.8791 25.0094 31.0137C31.1796 34.9837 33.5831 41.4648 33.5831 41.4648C36.2496 29.818 43.6515 29.8658 43.6515 29.8658C45.194 29.7103 52.7752 29.794 54.4493 29.9734C58.3714 30.38 62.4729 32.7117 63.2023 39.3004C63.5371 42.3975 64.2546 49.2851 62.1141 53.1235C61.8989 56.6152 66.3591 57.6435 64.2067 59.7361Z" fill="#8D95FF"/>
<path id="Vector_4" d="M62.7246 60.5972C55.9207 63.2757 32.9499 63.192 35.5567 59.5928C36.8721 57.7752 37.0275 55.838 36.9438 53.3867C37.1471 53.7454 37.3623 54.1042 37.6134 54.451C38.9168 56.1609 40.6268 57.56 42.5161 58.5644C45.5294 60.1787 48.9733 60.8483 52.3932 60.9918C55.8131 61.1353 59.3406 60.9918 62.7246 60.5972Z" fill="#757BFF"/>
<path id="Vector_5" d="M29.0152 36.1075C28.8717 37.4826 28.7282 38.8697 28.5728 40.2448C28.4412 41.4885 28.3097 42.744 27.8314 43.892C27.4009 44.9442 26.6476 45.9128 25.6312 46.3911C24.5909 45.1116 23.694 43.6289 22.9766 42.1222C23.5744 41.0938 24.3278 40.1492 24.9855 39.1567C25.7747 37.9848 26.3486 36.7771 26.5758 35.3781C26.6476 34.9356 26.7313 34.6606 27.1737 34.4812C27.6759 34.2899 28.3814 34.278 28.7641 34.7084C29.0989 35.0791 29.075 35.6292 29.0152 36.1075Z" fill="#757BFF"/>
<path id="Vector_6" d="M38.806 39.3965C37.3352 41.9076 36.8569 44.5383 36.7852 47.1092Z" fill="#FC6054"/>
<path id="Vector_7" d="M64.1222 59.8197C64.0743 59.7719 64.0743 59.7001 64.1222 59.6523C66.155 57.6673 61.7784 56.6509 61.9937 53.1114C61.9937 53.0875 62.0056 53.0755 62.0056 53.0516C64.158 49.1773 63.3808 42.0027 63.0818 39.3003C62.2807 31.9702 57.3182 30.3798 54.4364 30.0809C52.846 29.9135 45.3007 29.8178 43.6625 29.9732H43.6506C43.6147 29.9732 41.7852 29.9852 39.6686 31.3962C37.6956 32.6996 35.0649 35.5097 33.7018 41.4885C33.6898 41.5363 33.642 41.5722 33.5941 41.5842C33.5463 41.5842 33.4985 41.5603 33.4746 41.5124C33.4506 41.4526 31.0471 35.127 25.0683 31.2049C24.7335 32.1495 24.0997 32.4485 23.442 32.7594C22.88 33.0225 22.3061 33.2975 21.8636 34.003C21.0625 35.2586 21.3853 38.0925 22.7007 41.2135C24.0878 44.5138 26.2282 47.3837 28.4045 48.8784C30.509 50.3253 33.6539 51.1862 36.6792 47.0847C36.7151 47.0369 36.7629 47.0249 36.8108 47.0369C36.8586 47.0489 36.8945 47.0967 36.8945 47.1565C36.8466 48.8784 36.9303 50.409 36.9901 51.7602C37.1575 55.0486 37.2651 57.4281 35.6509 59.6523C35.615 59.7001 35.5313 59.7121 35.4834 59.6762C35.4356 59.6403 35.4237 59.5566 35.4595 59.5088C37.038 57.3444 36.9184 55.0007 36.7629 51.7602C36.7031 50.5046 36.6314 49.0817 36.6553 47.5032C33.5941 51.4254 30.4134 50.5285 28.273 49.0577C26.0608 47.5391 23.8964 44.6334 22.4854 41.2852C21.1222 38.0447 20.7994 35.1988 21.6603 33.8595C22.1506 33.0942 22.7844 32.7953 23.3464 32.5322C24.016 32.2093 24.6019 31.9343 24.9009 30.9777C24.9128 30.9418 24.9368 30.9179 24.9726 30.9059C25.0085 30.894 25.0444 30.894 25.0802 30.9179C30.4014 34.3378 32.9604 39.6709 33.5583 41.07C34.9693 35.2586 37.588 32.4963 39.561 31.1929C41.7015 29.77 43.5071 29.746 43.6506 29.746C45.3007 29.5786 52.87 29.6863 54.4723 29.8537C57.4258 30.1526 62.5079 31.7789 63.321 39.2883C63.6199 42.0027 64.4091 49.2132 62.2209 53.1592C62.0415 56.5672 66.5257 57.6314 64.2776 59.8197C64.2537 59.8675 64.17 59.8675 64.1222 59.8197Z" fill="#112544"/>
<path id="Vector_8" d="M38.806 39.3965C37.3352 41.9076 36.8569 44.5383 36.7852 47.1092Z" fill="white"/>
<path id="Vector_9" d="M36.7875 47.2278C36.7158 47.2278 36.668 47.168 36.668 47.1083C36.7397 44.083 37.4093 41.5479 38.7008 39.3357C38.7367 39.276 38.8084 39.264 38.8682 39.2879C38.928 39.3118 38.9399 39.3955 38.916 39.4553C37.6485 41.6316 36.9908 44.1308 36.9071 47.1083C36.9071 47.18 36.8593 47.2278 36.7875 47.2278Z" fill="#112544"/>
<path id="Vector_10" d="M34.5503 44.4652C33.9643 42.3845 33.498 41.6192 33.486 41.6192C33.4501 41.5594 33.4741 41.4877 33.5219 41.4518C33.5817 41.4159 33.6534 41.4279 33.6893 41.4877C33.7132 41.5236 34.1796 42.2769 34.7775 44.3934C34.8014 44.4532 34.7535 44.525 34.6937 44.5369C34.634 44.5608 34.5742 44.525 34.5503 44.4652Z" fill="#112544"/>
<path id="Vector_11" d="M43.9126 58.1694H28.9057C28.8459 58.1694 28.7861 58.1575 28.7263 58.1455C26.9685 57.6433 25.6412 57.0335 24.6607 56.2921C20.7984 53.3983 22.4485 48.6033 26.0119 41.4167C29.4199 34.5291 26.263 30.5471 24.5651 29.0405C24.2542 28.7654 24.5053 28.335 24.9597 28.335H41.0547C41.1863 28.335 41.3058 28.3708 41.4015 28.4306C42.394 29.1003 47.6912 33.1778 43.6256 41.4047C39.572 49.5838 38.0055 54.6539 44.1876 57.3683C44.654 57.5955 44.4627 58.1694 43.9126 58.1694Z" fill="white"/>
<path id="Vector_12" d="M43.916 58.1694H28.909C28.8493 58.1694 28.7895 58.1575 28.7297 58.1455C26.9719 57.6433 25.6446 57.0335 24.6641 56.2921C24.9032 56.1008 25.1663 55.9453 25.4413 55.8377C27.7013 54.893 30.2483 56.1605 32.3529 56.603C35.701 57.3085 37.5784 55.8257 37.9252 54.1995C38.1524 53.1233 37.686 52.0351 37.4708 50.9589C36.3467 45.6378 40.5559 40.9982 41.8114 36.0238C42.3615 33.8475 42.3734 31.2885 41.1537 29.3274C40.9624 29.0285 40.6515 28.6817 40.4961 28.335H41.0581C41.1896 28.335 41.3092 28.3708 41.4048 28.4306C42.3973 29.1003 47.6946 33.1778 43.629 41.4047C39.5753 49.5838 38.0089 54.6539 44.191 57.3683C44.6573 57.5955 44.466 58.1694 43.916 58.1694Z" fill="#E1E5FF"/>
<path id="Vector_13" d="M43.9128 58.2894H28.9059C28.8341 58.2894 28.7624 58.2775 28.6906 58.2536C19.6386 55.6588 21.6475 49.9191 25.8925 41.3573C29.3005 34.4697 26.036 30.5117 24.4695 29.1246C24.0869 28.7778 24.3739 28.2158 24.9479 28.2158H41.0429C41.1984 28.2158 41.3419 28.2637 41.4495 28.3354C42.5496 29.0768 47.811 33.1902 43.7095 41.465C40.2059 48.5439 37.6469 54.3793 44.2117 57.273C44.8096 57.5361 44.5944 58.2894 43.9128 58.2894ZM24.9479 28.455C24.625 28.455 24.3978 28.742 24.625 28.9452C26.2273 30.3682 29.5874 34.4338 26.1078 41.465C21.8628 50.0386 19.9734 55.5153 28.7504 58.0264C28.7982 58.0383 28.8461 58.0503 28.9059 58.0503H43.9128C44.3193 58.0503 44.4867 57.6557 44.1161 57.4883C37.2404 54.463 40.0624 48.2928 43.4943 41.3573C47.5001 33.262 42.3822 29.2561 41.318 28.5387C41.2462 28.4908 41.1386 28.455 41.0429 28.455H24.9479Z" fill="#112544"/>
<path id="Vector_14" d="M52.6924 21.6858V29.7812C52.6924 32.9619 45.9961 32.9619 45.9961 29.7812V26.9472C46.3548 26.8754 46.7375 26.9113 47.156 26.7798C49.6193 26.0025 51.9152 24.3763 52.6565 21.6738H52.6924V21.6858Z" fill="#FCBBA4"/>
<path id="Vector_15" d="M49.3427 32.2813C49.3188 32.2813 49.2949 32.2813 49.271 32.2813C47.6567 32.2574 45.8989 31.4802 45.875 29.8061C45.875 29.7344 45.9228 29.6865 45.9946 29.6865C46.0544 29.6865 46.1142 29.7344 46.1142 29.8061C46.1381 31.3128 47.7643 32.0183 49.271 32.0422C50.8135 32.0661 52.4996 31.3965 52.5713 29.8659C52.5713 29.7941 52.6311 29.7463 52.6909 29.7463C52.7626 29.7463 52.8105 29.8061 52.8105 29.8659C52.7387 31.54 50.9809 32.2813 49.3427 32.2813Z" fill="#112544"/>
<path id="Vector_16" d="M52.9139 19.7374C52.9139 23.6356 50.1876 25.9076 47.1503 26.7925C41.4943 28.4307 41.3867 23.6356 41.3867 19.7374C41.3867 15.8512 43.9696 12.6943 47.1503 12.6943C50.343 12.6943 52.9139 15.8392 52.9139 19.7374Z" fill="#FCBBA4"/>
<path id="Vector_17" d="M50.1185 16.6885C50.1185 16.6885 43.9363 19.4866 40.7197 16.7842C37.5031 14.0817 41.8557 11.1043 45.0365 12.4674C45.0365 12.4674 44.3907 10.1476 48.002 11.738C48.002 11.738 49.676 8.98774 51.5295 14.1056C51.5295 14.1056 53.072 13.7589 52.4741 16.1982C52.4741 16.1982 55.1407 16.1863 52.9166 20.3356C52.9166 20.3356 51.4338 18.4463 50.4055 21.077C50.4174 21.0889 48.3487 19.0083 50.1185 16.6885Z" fill="#112544"/>
<path id="Vector_18" d="M53.5051 21.3043C53.3616 22.4044 52.5006 23.2893 51.5799 23.2893C50.6591 23.2893 50.0493 22.4044 50.1928 21.3043C50.3363 20.2042 51.1972 19.3193 52.118 19.3193C53.0387 19.3193 53.6486 20.2162 53.5051 21.3043Z" fill="#FCBBA4"/>
<path id="Vector_19" d="M45.4699 55.0244C44.9677 55.2516 43.7241 55.0961 43.2218 55.1201C41.8945 55.1679 41.4999 54.6537 41.8108 54.283C41.9065 54.1634 42.0261 54.1037 42.1815 54.0678C41.2847 53.996 40.7944 53.5177 41.0455 53.2188C41.1532 53.0873 41.3325 53.0036 41.5836 52.9796C40.7346 52.8959 40.34 52.4176 40.5911 52.1067C40.7107 51.9632 40.9977 51.8915 41.3445 51.8676C40.639 51.76 38.642 51.6762 38.7377 51.0784C38.9051 50.1337 43.1142 50.8392 43.1142 50.8392C43.1142 50.8392 41.4641 50.1815 41.751 49.5358C42.0261 48.926 44.2622 49.3445 44.8481 49.8587C45.8406 50.7316 48.5071 53.6134 45.4699 55.0244Z" fill="#FCBBA4"/>
<path id="Vector_20" d="M66.9177 50.2414C62.9238 55.5028 45.9558 54.9169 45.9558 54.9169C46.2069 52.6091 46.0395 50.9948 44.8438 49.6435C44.8438 49.6435 44.9633 49.5598 45.1905 49.4044C46.6135 48.4358 52.2695 44.8724 57.483 45.8769C57.483 45.8769 50.8106 38.0924 54.6491 33.955L60.0659 32.8191L60.4605 32.7354C60.4486 32.7354 70.9115 44.992 66.9177 50.2414Z" fill="#8D95FF"/>
<path id="Vector_21" d="M66.9177 50.2417C62.9238 55.5031 45.9558 54.9171 45.9558 54.9171C46.2069 52.6093 46.0395 50.995 44.8438 49.6438C44.8438 49.6438 44.9633 49.5601 45.1905 49.4046C45.346 49.4166 45.5014 49.4405 45.6449 49.4764C47.1635 49.859 48.0962 51.3298 49.3638 52.2386C51.8151 53.9964 55.223 53.4822 58.069 52.4419C60.1137 51.7005 62.1465 50.6602 63.3901 48.8785C64.8609 46.762 64.9446 43.928 64.2272 41.4528C63.5097 38.9775 60.4605 33.0704 60.4486 32.7236C60.4486 32.7356 70.9115 44.9922 66.9177 50.2417Z" fill="#757BFF"/>
<path id="Vector_22" d="M46.0039 27.0444C46.9605 26.8889 48.1802 26.6139 49.4597 25.8127C49.651 25.6932 49.8782 25.8725 49.8184 26.0878C49.5673 26.865 48.7542 28.1445 46.0159 28.4076L46.0039 27.0444Z" fill="#E2805D"/>
<path id="Vector_23" d="M45.7801 22.3913C44.955 22.3913 44.2734 21.7216 44.2734 20.8846C44.2734 20.0595 44.9431 19.3779 45.7801 19.3779C46.6171 19.3779 47.2868 20.0476 47.2868 20.8846C47.2868 21.7097 46.6052 22.3913 45.7801 22.3913ZM45.7801 19.6171C45.0866 19.6171 44.5126 20.1791 44.5126 20.8846C44.5126 21.5781 45.0746 22.1521 45.7801 22.1521C46.4856 22.1521 47.0476 21.5901 47.0476 20.8846C47.0476 20.1911 46.4737 19.6171 45.7801 19.6171Z" fill="#8D95FF"/>
<path id="Vector_24" d="M41.7098 22.3913C40.8847 22.3913 40.2031 21.7216 40.2031 20.8846C40.2031 20.0595 40.8728 19.3779 41.7098 19.3779C42.5349 19.3779 43.2165 20.0476 43.2165 20.8846C43.2165 21.7097 42.5468 22.3913 41.7098 22.3913ZM41.7098 19.6171C41.0162 19.6171 40.4423 20.1791 40.4423 20.8846C40.4423 21.5781 41.0043 22.1521 41.7098 22.1521C42.4033 22.1521 42.9773 21.5901 42.9773 20.8846C42.9773 20.1911 42.4153 19.6171 41.7098 19.6171Z" fill="#8D95FF"/>
<path id="Vector_25" d="M44.4529 20.5984C44.429 20.5984 44.405 20.5984 44.3931 20.5745C43.9506 20.2875 43.5202 20.2875 43.1016 20.5745C43.0419 20.6104 42.9701 20.5984 42.9342 20.5386C42.8984 20.4788 42.9103 20.4071 42.9701 20.3712C43.4723 20.0364 43.9865 20.0364 44.5246 20.3712C44.5844 20.4071 44.5964 20.4788 44.5605 20.5386C44.5366 20.5745 44.5007 20.5984 44.4529 20.5984Z" fill="#8D95FF"/>
<path id="Vector_26" d="M47.0219 20.4071C46.9621 20.4071 46.9023 20.3593 46.9023 20.2875C46.9023 20.2158 46.9502 20.1679 47.0219 20.1679L50.2505 20.1201C50.3103 20.1201 50.3701 20.1679 50.3701 20.2397C50.3701 20.3114 50.3222 20.3593 50.2505 20.3593L47.0219 20.4071Z" fill="#8D95FF"/>
<path id="Vector_27" d="M43.2163 22.8588C42.8934 22.3207 43.5631 21.2206 43.6468 21.101C43.6826 21.0412 43.7544 21.0292 43.8142 21.0651C43.874 21.101 43.8859 21.1727 43.85 21.2325C43.6587 21.5315 43.2163 22.3924 43.4196 22.7511C43.4913 22.8707 43.6587 22.9185 43.9098 22.9066C43.9696 22.9066 44.0294 22.9544 44.0414 23.0142C44.0533 23.074 43.9935 23.1338 43.9337 23.1457C43.6468 23.1577 43.3598 23.1099 43.2163 22.8588Z" fill="#E2805D"/>
<path id="Vector_28" d="M43.2415 24.7834C43.2176 24.7834 43.1937 24.7714 43.1698 24.7595C43.1219 24.7236 43.11 24.6399 43.1459 24.5921C43.1578 24.5801 43.8394 23.7431 44.9156 24.2453C44.9754 24.2692 44.9993 24.341 44.9754 24.4007C44.9515 24.4605 44.8797 24.4844 44.8199 24.4605C43.9112 24.0301 43.3611 24.6997 43.3372 24.7356C43.3133 24.7714 43.2774 24.7834 43.2415 24.7834Z" fill="#E2805D"/>
<path id="Vector_29" d="M45.4086 21.3521C45.3369 21.3521 45.2891 21.3043 45.2891 21.2325V21.0532C45.2891 20.9814 45.3369 20.9336 45.4086 20.9336C45.4804 20.9336 45.5282 20.9814 45.5282 21.0532V21.2325C45.5282 21.3043 45.4804 21.3521 45.4086 21.3521Z" fill="#112544"/>
<path id="Vector_30" d="M41.9165 21.2681C41.8447 21.2681 41.7969 21.2203 41.7969 21.1486V20.9692C41.7969 20.8974 41.8447 20.8496 41.9165 20.8496C41.9882 20.8496 42.036 20.8974 42.036 20.9692V21.1486C42.036 21.2083 41.9762 21.2681 41.9165 21.2681Z" fill="#112544"/>
<path id="Vector_31" d="M46.7722 19.1152C46.3178 18.7924 45.8754 18.7326 45.409 18.9119C45.3492 18.9359 45.2775 18.9 45.2536 18.8402C45.2297 18.7804 45.2655 18.7087 45.3253 18.6848C45.8634 18.4695 46.4015 18.5532 46.9157 18.9119C46.9755 18.9478 46.9875 19.0196 46.9396 19.0794C46.9037 19.1511 46.832 19.1631 46.7722 19.1152Z" fill="#112544"/>
<path id="Vector_32" d="M42.9714 19.0078C42.517 18.685 42.0746 18.6252 41.6083 18.8045C41.5485 18.8284 41.4767 18.7926 41.4528 18.7328C41.4289 18.673 41.4648 18.6012 41.5246 18.5773C42.0626 18.3621 42.6007 18.4458 43.1149 18.8045C43.1747 18.8404 43.1867 18.9121 43.1388 18.9719C43.103 19.0437 43.0312 19.0556 42.9714 19.0078Z" fill="#112544"/>
<path id="Vector_33" d="M51.7444 21.5069C51.6846 21.471 51.6607 21.3993 51.6965 21.3395L51.8879 21.0047C51.9237 20.9449 51.9955 20.9329 52.0553 20.9569C52.1151 20.9927 52.139 21.0645 52.1031 21.1243L51.9118 21.4591C51.8759 21.5189 51.8042 21.5428 51.7444 21.5069Z" fill="#E2805D"/>
<path id="Vector_34" d="M23.9553 30.0452C23.9553 30.0452 27.985 29.268 28.4035 29.9137C28.8221 30.5594 27.2676 30.9779 27.2676 30.9779C27.2676 30.9779 28.9416 30.8583 28.8101 31.5041C28.6786 32.1498 27.3752 32.1856 27.3752 32.1856C27.3752 32.1856 28.8818 31.9465 28.9297 32.6161C28.9775 33.2857 27.3871 33.226 27.3871 33.226C27.3871 33.226 29.1569 33.0825 28.8101 33.8358C28.4633 34.5891 27.2078 34.5772 27.2078 34.5772C27.2078 34.5772 27.3752 35.8925 26.5142 36.4904C24.6129 37.8177 22.7595 36.4187 22.2094 35.4142C21.48 34.063 21.1452 30.9062 23.9553 30.0452Z" fill="#FCBBA4"/>
<path id="Vector_35" d="M24.877 37.1363C24.6617 37.1363 24.4585 37.1124 24.2432 37.0646C23.2388 36.8254 22.4496 36.0841 22.1028 35.4503C22.0669 35.3905 22.0908 35.3188 22.1506 35.2829C22.2104 35.247 22.2822 35.2709 22.318 35.3307C22.6289 35.8927 23.3703 36.5982 24.303 36.8254C25.0444 37.0048 25.7618 36.8494 26.4434 36.371C27.2326 35.821 27.0892 34.5774 27.0892 34.5654C27.0772 34.4937 27.137 34.4339 27.2087 34.4339C27.2207 34.4339 28.3806 34.4339 28.7034 33.7643C28.7274 33.7045 28.7991 33.6806 28.8589 33.7045C28.9187 33.7284 28.9426 33.8001 28.9187 33.8599C28.6078 34.5296 27.687 34.6491 27.3403 34.6611C27.3642 35.0198 27.3403 36.0362 26.5869 36.5624C26.0369 36.945 25.4629 37.1363 24.877 37.1363Z" fill="#112544"/>
<path id="Vector_36" d="M45.9599 55.0359C45.8882 55.0359 45.8403 54.9761 45.8403 54.9043C46.0795 52.728 45.9719 51.1018 44.7522 49.7266C44.7043 49.6788 44.7163 49.5951 44.7761 49.5473C44.8359 49.4994 51.2691 44.7762 57.1882 45.6969C56.6979 45.0871 55.4543 43.4488 54.5216 41.5117C52.9432 38.2353 52.9552 35.5926 54.5575 33.8588C54.6053 33.8109 54.6771 33.8109 54.7249 33.8468C54.7727 33.8946 54.7727 33.9664 54.7369 34.0142C51.018 38.032 57.511 45.7089 57.5828 45.7806C57.6187 45.8165 57.6187 45.8763 57.5947 45.9241C57.5708 45.9719 57.523 45.9958 57.4632 45.9839C51.9746 44.9316 45.9001 49.0451 45.0272 49.6549C46.1991 51.054 46.3067 52.728 46.1034 54.7848C47.6818 54.8206 63.1072 55.0598 66.838 50.1571C70.7243 45.0392 60.4766 32.9141 60.3689 32.7945C60.3211 32.7467 60.3331 32.663 60.3809 32.6271C60.4287 32.5793 60.5124 32.5913 60.5483 32.6391C63.9443 36.609 70.3297 45.948 67.0294 50.3006C63.7171 54.6652 51.305 55.2272 45.9599 55.0359Z" fill="#112544"/>
<path id="Vector_37" d="M19.3404 27.2113H17.8098C17.7739 27.2113 17.7261 27.1873 17.7141 27.1515C15.8009 24.1381 14.1507 24.5806 13.505 26.9123C13.4691 27.0199 13.3256 27.0319 13.2778 26.9243C13.2658 26.8884 11.8907 23.8751 9.78615 24.0783C8.37514 24.2218 8.12402 25.7883 8.37514 27.0558C8.38709 27.1276 8.32731 27.1993 8.25556 27.1993H7.11958C7.04783 27.1993 7 27.1515 7 27.0797C7 27.008 7.04783 26.9602 7.11958 26.9602H8.11207C7.89683 25.4894 8.25556 23.9946 9.75027 23.8392C11.6635 23.6479 12.9549 25.7883 13.3615 26.5536C14.1985 24.3055 15.8487 23.899 17.8815 26.9602H19.3523C19.4241 26.9602 19.4719 27.008 19.4719 27.0797C19.4719 27.1515 19.4121 27.2113 19.3404 27.2113Z" fill="#CCD2FF"/>
<path id="Vector_38" d="M57.4766 45.877C57.4766 45.877 58.9234 45.9128 60.2866 46.2118Z" fill="white"/>
<path id="Vector_39" d="M60.2612 46.3315C58.9339 46.0326 57.487 46.0087 57.475 46.0087C57.4033 46.0087 57.3555 45.9489 57.3555 45.8891C57.3555 45.8174 57.4153 45.7695 57.475 45.7695C57.487 45.7695 58.9578 45.8054 60.309 46.1043C60.3688 46.1163 60.4166 46.1881 60.4047 46.2478C60.3927 46.2957 60.3329 46.3435 60.2612 46.3315Z" fill="#112544"/>
<path id="Vector_40" d="M67.4329 25.1175H66.0577C66.0099 25.1175 65.974 25.0935 65.9501 25.0577C65.9382 25.0338 64.8261 22.9172 63.8815 22.7379C62.7574 22.5226 62.2313 24.7826 62.2193 24.8066C62.2074 24.8544 62.1595 24.8903 62.1117 24.9022C62.0639 24.9022 62.0041 24.8783 61.9921 24.8185C61.9802 24.7826 60.7605 21.4823 58.8951 21.7095C58.8353 21.7215 58.7755 21.6736 58.7635 21.6019C58.7516 21.5421 58.7994 21.4823 58.8712 21.4704C60.5692 21.2551 61.7171 23.5271 62.0878 24.4C62.303 23.7184 62.877 22.2835 63.9293 22.4987C64.8979 22.69 65.9262 24.5076 66.1295 24.8783H67.4329C67.5046 24.8783 67.5525 24.9261 67.5525 24.9979C67.5525 25.0696 67.5046 25.1175 67.4329 25.1175Z" fill="#CCD2FF"/>
<path id="Vector_41" d="M45.6846 21.0762C45.6846 21.3154 45.589 21.5187 45.4574 21.5187C45.3259 21.5187 45.2422 21.3154 45.2422 21.0762C45.2422 20.8371 45.3378 20.6338 45.4574 20.6338C45.577 20.6338 45.6846 20.8371 45.6846 21.0762Z" fill="#112544"/>
<g id="Group">
<path id="Vector_42" d="M42.1338 21.0879C42.1338 21.3271 42.0382 21.5304 41.9066 21.5304C41.7871 21.5304 41.6914 21.3271 41.6914 21.0879C41.6914 20.8488 41.7871 20.6455 41.9066 20.6455C42.0382 20.6455 42.1338 20.8368 42.1338 21.0879Z" fill="#112544"/>
</g>
</g>
</g>
</svg>
