<svg width="40" height="40" viewBox="0 0 40 40" fill="none" xmlns="http://www.w3.org/2000/svg">
<path d="M26.982 3.33398H13.0154C6.9487 3.33398 3.33203 6.95065 3.33203 13.0173V26.9673C3.33203 33.0507 6.9487 36.6673 13.0154 36.6673H26.9654C33.032 36.6673 36.6487 33.0507 36.6487 26.984V13.0173C36.6654 6.95065 33.0487 3.33398 26.982 3.33398ZM27.9654 16.1673L18.5154 25.6173C18.282 25.8507 17.9654 25.984 17.632 25.984C17.2987 25.984 16.982 25.8507 16.7487 25.6173L12.032 20.9007C11.5487 20.4173 11.5487 19.6173 12.032 19.134C12.5154 18.6506 13.3154 18.6506 13.7987 19.134L17.632 22.9673L26.1987 14.4007C26.682 13.9173 27.482 13.9173 27.9654 14.4007C28.4487 14.884 28.4487 15.6673 27.9654 16.1673Z" fill="#00AB55"/>
</svg>
