<svg width="40" height="40" viewBox="0 0 40 40" fill="none" xmlns="http://www.w3.org/2000/svg">
<path fill-rule="evenodd" clip-rule="evenodd" d="M12.6833 3H26.65C32.7167 3 36.3333 6.61667 36.3167 12.6833V26.65C36.3167 32.7167 32.7 36.3333 26.6333 36.3333H12.6833C6.61667 36.3333 3 32.7167 3 26.6333V12.6833C3 6.61667 6.61667 3 12.6833 3ZM20 7.25C19.5858 7.25 19.25 7.58579 19.25 8C19.25 8.41421 19.5858 8.75 20 8.75C26.2098 8.75 31.25 13.7902 31.25 20C31.25 26.2098 26.2098 31.25 20 31.25C13.7902 31.25 8.75 26.2098 8.75 20C8.75 17.4566 9.59346 15.1064 11.0223 13.2163C11.2721 12.8859 11.2067 12.4155 10.8763 12.1657C10.5459 11.9159 10.0755 11.9813 9.82571 12.3117C8.20654 14.4536 7.25 17.1194 7.25 20C7.25 27.0382 12.9618 32.75 20 32.75C27.0382 32.75 32.75 27.0382 32.75 20C32.75 12.9618 27.0382 7.25 20 7.25ZM19.2477 11.5996C19.2477 11.1854 19.5834 10.8496 19.9977 10.8496C25.0559 10.8496 29.1477 14.9414 29.1477 19.9996C29.1477 25.0578 25.0559 29.1496 19.9977 29.1496C14.9394 29.1496 10.8477 25.0578 10.8477 19.9996C10.8477 19.5854 11.1834 19.2496 11.5977 19.2496C12.0119 19.2496 12.3477 19.5854 12.3477 19.9996C12.3477 24.2294 15.7679 27.6496 19.9977 27.6496C24.2274 27.6496 27.6477 24.2294 27.6477 19.9996C27.6477 15.7698 24.2274 12.3496 19.9977 12.3496C19.5834 12.3496 19.2477 12.0138 19.2477 11.5996ZM20 14.4492C19.5858 14.4492 19.25 14.785 19.25 15.1992C19.25 15.6134 19.5858 15.9492 20 15.9492C22.2378 15.9492 24.05 17.7614 24.05 19.9992C24.05 22.237 22.2378 24.0492 20 24.0492C19.5858 24.0492 19.25 24.385 19.25 24.7992C19.25 25.2134 19.5858 25.5492 20 25.5492C23.0662 25.5492 25.55 23.0654 25.55 19.9992C25.55 16.933 23.0662 14.4492 20 14.4492Z" fill="#3366FF"/>
</svg>
