<svg width="40" height="40" viewBox="0 0 40 40" fill="none" xmlns="http://www.w3.org/2000/svg">
<path fill-rule="evenodd" clip-rule="evenodd" d="M12.6833 3H26.65C32.7167 3 36.3333 6.61667 36.3167 12.6833V26.65C36.3167 32.7167 32.7 36.3333 26.6333 36.3333H12.6833C6.61667 36.3333 3 32.7167 3 26.6333V12.6833C3 6.61667 6.61667 3 12.6833 3ZM10.001 19.998C10.001 14.488 14.491 9.99805 20.001 9.99805C25.511 9.99805 30.001 14.488 30.001 19.998C30.001 25.508 25.511 29.998 20.001 29.998C14.491 29.998 10.001 25.508 10.001 19.998ZM23.701 23.938C23.961 23.938 24.211 23.808 24.351 23.568C24.571 23.208 24.451 22.748 24.091 22.538L20.991 20.688C20.681 20.508 20.381 19.978 20.381 19.618V15.518C20.381 15.108 20.041 14.768 19.631 14.768C19.221 14.768 18.881 15.108 18.881 15.518V19.618C18.881 20.508 19.451 21.518 20.221 21.978L23.321 23.828C23.441 23.908 23.571 23.938 23.701 23.938Z" fill="#919EAB"/>
</svg>
