<svg width="25" height="24" viewBox="0 0 25 24" fill="none" xmlns="http://www.w3.org/2000/svg">
<g id="vuesax/bulk/user-tick">
<g id="vuesax/bulk/user-tick_2">
<g id="user-tick">
<path id="Vector" d="M18.7 13C17.76 13 16.89 13.33 16.2 13.88C15.28 14.61 14.7 15.74 14.7 17C14.7 17.75 14.9099 18.46 15.2799 19.06C15.9699 20.22 17.24 21 18.7 21C19.71 21 20.63 20.63 21.33 20C21.64 19.74 21.91 19.42 22.12 19.06C22.49 18.46 22.7 17.75 22.7 17C22.7 14.79 20.91 13 18.7 13ZM20.77 16.57L18.64 18.54C18.5 18.67 18.3099 18.74 18.1299 18.74C17.9399 18.74 17.7499 18.67 17.5999 18.52L16.61 17.53C16.32 17.24 16.32 16.76 16.61 16.47C16.9 16.18 17.38 16.18 17.67 16.47L18.15 16.95L19.7499 15.47C20.0499 15.19 20.5299 15.21 20.8099 15.51C21.0899 15.81 21.07 16.28 20.77 16.57Z" fill="#00AB55"/>
<path id="Vector_2" opacity="0.4" d="M21.79 21.5C21.79 21.78 21.57 22 21.29 22H4.10999C3.82999 22 3.60999 21.78 3.60999 21.5C3.60999 17.36 7.68998 14 12.7 14C13.73 14 14.73 14.14 15.65 14.41C15.06 15.11 14.7 16.02 14.7 17C14.7 17.75 14.91 18.46 15.28 19.06C15.48 19.4 15.74 19.71 16.04 19.97C16.74 20.61 17.67 21 18.7 21C19.82 21 20.83 20.54 21.55 19.8C21.71 20.34 21.79 20.91 21.79 21.5Z" fill="#00AB55"/>
<path id="Vector_3" d="M12.7 12C15.4614 12 17.7 9.76142 17.7 7C17.7 4.23858 15.4614 2 12.7 2C9.93853 2 7.69995 4.23858 7.69995 7C7.69995 9.76142 9.93853 12 12.7 12Z" fill="#00AB55"/>
</g>
</g>
</g>
</svg>
