<svg width="25" height="24" viewBox="0 0 25 24" fill="none" xmlns="http://www.w3.org/2000/svg">
<g id="vuesax/bulk/user-search">
<g id="vuesax/bulk/user-search_2">
<g id="user-search">
<path id="Vector" d="M12.1 12C14.8614 12 17.1 9.76142 17.1 7C17.1 4.23858 14.8614 2 12.1 2C9.33858 2 7.10001 4.23858 7.10001 7C7.10001 9.76142 9.33858 12 12.1 12Z" fill="#637381"/>
<path id="Vector_2" opacity="0.4" d="M12.1 14.5C7.09001 14.5 3.00998 17.86 3.00998 22C3.00998 22.28 3.22998 22.5 3.50998 22.5H20.69C20.97 22.5 21.19 22.28 21.19 22C21.19 17.86 17.11 14.5 12.1 14.5Z" fill="#637381"/>
<path id="Vector_3" d="M22.87 20.6797L22.11 19.9197C22.51 19.3197 22.74 18.5998 22.74 17.8298C22.74 15.7198 21.03 14.0098 18.92 14.0098C16.81 14.0098 15.1 15.7198 15.1 17.8298C15.1 19.9398 16.81 21.6498 18.92 21.6498C19.69 21.6498 20.41 21.4198 21.01 21.0198L21.77 21.7798C21.92 21.9298 22.12 22.0098 22.32 22.0098C22.52 22.0098 22.72 21.9298 22.87 21.7798C23.18 21.4698 23.18 20.9797 22.87 20.6797Z" fill="#637381"/>
</g>
</g>
</g>
</svg>
