<svg width="18" height="18" viewBox="0 0 18 18" fill="none" xmlns="http://www.w3.org/2000/svg">
<path id="Vector" d="M18 9.81818V13.0909C18 13.3058 17.9483 13.5186 17.8478 13.7171C17.7472 13.9157 17.5999 14.096 17.4142 14.248C17.2285 14.3999 17.008 14.5205 16.7654 14.6027C16.5227 14.6849 16.2626 14.7273 16 14.7273V15.5455C16 16.1964 15.6839 16.8208 15.1213 17.2811C14.5587 17.7414 13.7956 18 13 18H10C9.73478 18 9.48043 17.9138 9.29289 17.7604C9.10536 17.6069 9 17.3988 9 17.1818V16.7727C9 16.6642 9.05268 16.5602 9.14645 16.4835C9.24022 16.4067 9.36739 16.3636 9.5 16.3636H13C13.2652 16.3636 13.5196 16.2774 13.7071 16.124C13.8946 15.9706 14 15.7624 14 15.5455V14.7273C13.7348 14.7273 13.4804 14.6411 13.2929 14.4876C13.1054 14.3342 13 14.1261 13 13.9091V9C13 8.783 13.1054 8.5749 13.2929 8.42146C13.4804 8.26802 13.7348 8.18182 14 8.18182V5.72727C14 4.6423 13.4732 3.60176 12.5355 2.83456C11.5979 2.06737 10.3261 1.63636 9 1.63636C7.67392 1.63636 6.40215 2.06737 5.46447 2.83456C4.52678 3.60176 4 4.6423 4 5.72727V8.18182C4.26522 8.18182 4.51957 8.26802 4.70711 8.42146C4.89464 8.5749 5 8.783 5 9V13.9091C5 14.1261 4.89464 14.3342 4.70711 14.4876C4.51957 14.6411 4.26522 14.7273 4 14.7273H2C1.73736 14.7273 1.47728 14.6849 1.23463 14.6027C0.991982 14.5205 0.771504 14.3999 0.585787 14.248C0.400069 14.096 0.25275 13.9157 0.152241 13.7171C0.0517313 13.5186 -3.07786e-09 13.3058 0 13.0909V9.81818C-3.07786e-09 9.60329 0.0517313 9.3905 0.152241 9.19197C0.25275 8.99344 0.400069 8.81305 0.585787 8.6611C0.771504 8.50915 0.991982 8.38861 1.23463 8.30638C1.47728 8.22414 1.73736 8.18182 2 8.18182V5.72727C2 4.20831 2.7375 2.75155 4.05025 1.67748C5.36301 0.603407 7.14348 0 9 0C10.8565 0 12.637 0.603407 13.9497 1.67748C15.2625 2.75155 16 4.20831 16 5.72727V8.18182C16.2626 8.18182 16.5227 8.22414 16.7654 8.30638C17.008 8.38861 17.2285 8.50915 17.4142 8.6611C17.5999 8.81305 17.7472 8.99344 17.8478 9.19197C17.9483 9.3905 18 9.60329 18 9.81818Z" fill="#3366FF"/>
</svg>
